<svg fill="none" height="271" viewBox="0 0 310 271" width="310" xmlns="http://www.w3.org/2000/svg" xmlns:xlink="http://www.w3.org/1999/xlink"><clipPath id="a"><path d="m0 0h310v270.833h-310z"/></clipPath><g clip-path="url(#a)"><path d="m111.353 259.067-16.1196-99.021h-8.0598l-1.5352 14.2-2.3028 1.536-21.493-3.071-2.6866 35.31-19.574 45.289 7.2923 3.838 25.331-43.37 8.4436-30.32 22.2611 77.144z" fill="#fff8f0" fill-opacity=".6"/><path d="m218.434 97.8697 4.989-3.4542-1.919 15.3525 9.979-7.676 2.687 7.292 3.454-6.141 10.746 6.141-1.919-17.2713 11.131 8.0603 31.088 40.299-.768 2.303-20.725 19.574-6.909-2.303v-2.303l16.12-17.271-16.887-19.574-1.152 46.824-38.764-.384-1.919-1.151-3.07-29.553-9.979 19.574h-4.222l-14.201-25.331 6.525-3.454 9.595 11.13 10.363-30.321z" fill="#fff8f0" fill-opacity=".6"/><path d="m267.296 163.313c.678 1.038 1.27 1.98 1.887 2.909 1.051 1.557 2.2 3.041 3.155 4.646 1.137 1.931 2.418 3.802 2.455 6.216.036 2.293-.629 4.2-2.455 5.696-1.233 1.002-2.587 1.219-4.147 1.328-1.959.132-3.397-.531-4.812-1.762-1.221-1.05-2.382-2.088-2.853-3.693-.073-.266-.278-.495-.556-.978-.109.519-.206.809-.218 1.098-.085 2.752-.133 5.504-.254 8.243-.097 2.016-.29 4.019-.435 6.035-.036.482-.036.965-.049 1.448-.108 5.684-.193 11.368-.338 17.053-.073 3.222-.278 6.457-.314 9.679-.037 3.427.036 6.843.084 10.27.012 1.147.121 2.281.157 3.428.012.265-.157.543-.205.821-.049.265-.182.627-.061.808.472.76.339 1.593.327 2.402-.036 1.774-.182 3.548-.169 5.334.024 2.16.181 4.333.241 6.493.025.99.291 1.991-.278 2.957-.181.314-.024.857.073 1.267.23 1.074.52 2.148.774 3.21 2.95 2.1 6.371 2.74 9.902 3.138 2.345.254 4.655.821 6.976 1.219.629.109 1.028.423 1.33.978.87 1.533 1.173 3.126.556 4.9 2.128.531 4.244.277 6.335.132 4.631-.313 9.25-.687 13.892-.627 3.035.036 6.082-.254 9.117-.35.604-.024 1.245.109 1.813.314.315.12.508.555.75.844-.931.954-1.959 1.123-3.035 1.135-1.584.012-3.168-.024-4.751.012-2.165.036-4.329.109-6.505.157-1.971.048-3.93.06-5.9.109-1.645.048-3.289 0-4.933.168-3.361.326-6.722.459-10.096.085-.991-.109-2.019.072-3.022.097-1.971.048-3.942.108-5.913.108-3.034-.012-6.057-.108-9.092-.108-3.76-.013-7.52.024-11.28.036-2.454.012-4.909.012-7.363.024-.194 0-.387-.012-.581.012-3.409.446-6.806.181-10.204-.133-1.62-.157-3.264-.072-4.897-.121-1.547-.048-3.083-.193-4.63-.193-2.938.012-5.876.097-8.826.145-3.639.061-7.291.145-10.93.181-.713.012-1.451-.072-2.152-.217-1.995-.434-4.002-.29-6.009-.29-1.342 0-2.696-.157-4.038-.144-2.177.024-4.341.12-6.505.229-4.087.205-8.173.458-12.272.676-.471.024-.955-.085-1.439-.097-1.825-.036-3.651-.06-5.489-.096-2.212-.061-4.425-.157-6.637-.194-.81-.012-1.645.254-2.443.157-3.675-.482-7.29.459-10.954.338-4.195-.132-8.39-.265-12.586-.338-2.019-.036-4.038.109-6.057.145-1.923.036-3.845.073-5.767.036-.955-.024-1.899-.289-2.854-.325-1.148-.049-2.309.072-3.458.072-2.502-.012-5.005-.048-7.52-.121-.907-.024-1.826-.145-2.7202-.301-1.9587-.338-3.869.35-5.8397.132-1.9587-.205-3.9536-.084-5.9364-.06-.9552.012-1.9103.217-2.8534.217-3.9052.012-7.8104-.048-11.7036 0-2.5027.036-4.9934.338-7.4961.302-3.5183-.036-7.0366-.302-10.555-.41-1.9224-.061-3.8447.036-5.7671-.012-3.8569-.097-7.7138-.266-11.5706-.363-2.5632-.072-5.1143-.06-7.6775-.12-1.3058-.024-2.6115-.157-3.9052-.157-2.0191-.012-4.0382.048-6.0573.084-.7255.012-1.4509.037-2.1642.049-2.8413.036-5.6826.072-8.52384.084-1.78939 0-3.56669-.06-5.35608-.072-.67707 0-1.35414.024-2.01911.108-.846336.097-1.378317-.241-1.69267-1.098 1.00351-.821 2.20047-.941 3.39743-.965 2.98635-.049 5.99688-.242 8.97117-.037 4.5943.302 9.1646-.157 13.7468.012 3.3249.121 6.6619.121 9.9989.133 2.7566.012 5.5012-.096 8.2578-.072 1.1848.012 2.3818.193 3.881.326-2.4664-1.787-4.6548-3.368-6.8916-4.985-.3264.531-.5682 1.062-.9188 1.497-.4716.603-1.0519.7-1.6443.386-1.2816-.664-2.539-1.352-3.8569-1.931-.6892-.302-.8947-.676-.665-1.34.1209-.362.2297-.736.4111-1.074 1.2574-2.389 2.5632-4.743 3.4337-7.325.4473-1.316 1.2453-2.499 1.8257-3.778 1.608-3.56 3.1677-7.133 4.7757-10.693 2.1763-4.827 4.3889-9.643 6.553-14.482 2.2731-5.105 4.5944-10.186 6.674-15.364.6287-1.544.6529-3.391.7012-5.105.1209-4.2.3265-8.375 1.0036-12.527.1088-.664.1329-1.34.1692-2.015.3023-4.756.6045-9.523.9068-14.278.0242-.434.0484-.857.0726-1.448-1.0277-.29-2.0192-.64-3.0469-.857-1.9344-.398-3.881-.748-5.8397-1.086-2.1279-.362-4.28-.688-6.4079-1.05-.5199-.085-1.0156-.29-1.5234-.398-1.0761-.23-2.1521-.471-3.2403-.664-3.7117-.64-7.4477-1.074-11.0869-2.112-.9673-.278-1.995-.278-2.9864-.471-1.6564-.326-3.2886-.772-4.9571-1.014-1.5838-.229-3.0468-.844-4.5581-1.279-.8222-.241-1.6322-.603-2.3939-1.002-.2902-.156-.5199-.543-.6408-.881-.4715-1.243-.5924-2.546-.2539-3.825 1.1365-4.285 2.3093-8.557 3.5304-12.817.2539-.869.7496-1.666 1.2211-2.45.2056-.35.5804-.628.9189-.857 1.6081-1.086 3.4458-1.448 5.3198-1.69.1451-.024.2902.012.4353-.012 2.4181-.265 2.6599-.458 3.47-2.703.266-.724.6045-1.412.8705-2.136.8342-2.221 2.672-2.752 4.7636-2.716 1.3904.024 2.7688.278 4.1592.35.3869.024.8463-.145 1.1606-.374 3.1557-2.377 6.2992-4.791 9.4306-7.205 2.8655-2.208 5.7188-4.429 8.5843-6.65 4.2679-3.307 8.56-6.589 12.8038-9.944 2.1521-1.702 4.2196-3.536 6.3233-5.311.3265-.277.6287-.639 1.0035-.82.8585-.411 1.2212-1.086 1.5234-1.967.3869-1.111 1.064-2.1245 1.6443-3.1624.3748-.6759.8222-1.3034 1.1849-1.9793 1.4267-2.6672 3.4216-4.9119 5.477-7.0722.81-.8449 1.9828-1.3397 3.0226-1.9552.8222-.4827 1.6927-.9051 2.6841-1.4241-2.4906-2.631-5.7913-4.4775-6.9762-8.0981-2.1763-3.0292-3.0831-6.4929-3.5063-10.2946-.3868.1931-.6649.3259-.943.4587-1.1728.5672-2.406.7361-3.6634.4586-1.6927-.3742-3.4095-.6879-5.0418-1.2672-.7979-.2897-1.4992-1.0259-2.0916-1.6897-1.2332-1.412-1.4992-3.1982-1.6927-4.9843-.2902-2.6551.7496-4.9361 2.1763-7.0119 1.1365-1.6655 2.938-2.3776 4.9813-2.5103 2.5994-.1811 4.9571.5189 7.0971 1.943.5441.3621.9672.881 1.4629 1.3517.7497-.8086 1.5114-1.6051 2.2368-2.4258 2.4302-2.7999 5.2835-4.924 9.0195-5.6361 1.1244-.2172 2.2367-.4827 3.5911-.7724.133-.3741.338-1.0017.556-1.6051 1.294-.7724 2.72-.5914 4.099-.6034.616 0 1.112.4465 1.281 1.0258.23.7724.774.7965 1.427.9172 1.269.2293 2.539.5431 3.736.9776 1.487.5431 2.877 1.3517 4.364 1.8586 1.669.5672 2.672 1.8827 3.761 3.0775.931 1.0138 1.644 2.2206 2.418 3.3672 1.668 2.5223 2.865 5.2619 3.264 8.267.157 1.1707.714 1.5931 1.741 1.8948 1.608.4827 3.18 1.0862 4.74 1.7017 1.257.4948 1.426 1.5206.35 2.3775-.786.6276-1.668 1.1345-2.539 1.6534-1.245.7362-2.515 1.4362-3.772 2.1603-.532.3017-.895.6759-.883 1.3638.013.4224-.133.8568-.253 1.2793-.399 1.5085-1.052 2.0034-2.672 2.0396-.605.012-1.197 0-1.838.2534.991.6155 1.995 1.2189 3.047 1.8707-.835 1.8344-1.693 3.4033-3.192 4.6585-1.56 1.3034-3.108 2.5465-4.957 3.4516-1.802.869-3.676 1.3396-5.659 1.4965-.508.0362-1.015.169-1.765.3017.326.4707.496.7724.725 1.05 2.104 2.5706 3.543 5.443 4.172 8.7378.266 1.3516.834 2.6426 1.305 3.9466 1.125 3.077 2.104 6.191 2.467 9.462.193 1.701 0 3.367-.532 4.996-.121.362-.29.712-.484 1.05-.931 1.617-1.898 3.222-2.793 4.852-.217.398-.278.917-.266 1.376.049 1.255.146 2.498.266 3.741.194 2.112.448 4.212.593 6.324.097 1.327.459 2.534 1.161 3.669.362.591.616 1.243 1.051 2.124 1.608-2.643 3.047-5.009 4.45-7.326-.81-1.822-1.403-3.584-1.487-5.503-.037-.857-.472-1.69-.496-2.547-.157-4.972.641-9.703 3.893-13.722 1.004-1.231 2.007-2.474 3.591-3.041.798-.29 1.04-.785.895-1.678-.206-1.243.06-1.424 1.293-1.713 2.394-.58 4.764-1.195 7.134-1.847 3.204-.881 6.396-1.81 9.6-2.691.93-.254 1.886-.386 2.817-.628 2.514-.6516 5.029-1.3153 7.532-1.9912.508-.1327.979-.3862 1.644-.6517-.121-.5914-.217-1.1827-.35-1.762-.291-1.2431-.121-1.7741 1.088-2.2569 2.901-1.1465 5.791-2.3775 8.79-3.2464 5.041-1.4724 10.168-2.7034 15.258-4.0189.834-.2172 1.705-.3379 2.551-.519.979-.2051 1.838.0242 2.478.7966.702.8448 1.27 1.7258 1.693 2.812.617 1.5568.846 3.1861.979 4.7671.194 2.3172-.254 3.9827-2.793 4.8396-3.893 1.3038-7.858 2.2928-11.824 3.2948-3.543.905-7.061 1.931-10.579 2.921-.411.12-.786.446-1.197.494-.895.097-1.802.085-2.696.097-1.185.012-1.379-1.014-1.778-1.774-2.575.265-14.823 3.524-15.79 4.212.423.47.98.301 1.463.338 1.487.132 2.987.217 4.22 1.231 1.656 1.363 2.817 3.041 2.853 5.25.024 1.436.061 2.932-.326 4.284-.532 1.834-1.79 3.271-3.519 4.224-.665.362-1.318.736-2.007 1.122.17 1.111.315 2.1.46 3.066-1.451.941-2.987 1.376-4.788 1.291-.206-1.146-.411-2.269-.641-3.512-1.487-.096-3.01-.193-4.631-.289-1.015 1.448-1.535 3.174-2.188 4.863-.689 1.786-1.572 3.5-2.345 5.25-.581 1.316-1.137 2.643-1.681 3.971-.605 1.472-1.149 2.969-1.765 4.417-.327.76-.436 1.4.036 2.172.774 1.267 1.415 2.619 2.164 4.031 1.04-.108 2.08-.217 3.132-.314 4.171-.374 8.27.025 11.957 2.088 1.657.93 3.361 2.076 4.232 3.971.084.169.181.362.181.543-.012 1.834-.592 3.56-2.104 4.526-1.245.796-2.805 1.038-4.437.796-3.3-.495-5.815-2.522-8.415-4.26-1.608-1.074-2.805-2.752-4.159-4.176-.363-.386-.665-.82-1.076-1.339-.713.156-1.475.277-2.188.494-1.149.35-2.273.797-3.41 1.171-.713.229-1.173.748-1.366 1.4-.593 1.991-2.164 3.247-3.506 4.659-.436.446-1.161.639-1.778.881-.338.132-.737.132-1.209.217.133.977.254 1.87.387 2.776.266 1.798.508 3.608.834 5.406.17.893.412 1.799.786 2.619.762 1.654 1.633 3.259 2.418 4.792 3.773-.93 7.412-1.799 11.051-2.728 1.161-.302 2.285-.784 3.434-1.134 1.729-.519 2.188-.254 2.841 1.436.532 1.4.762 2.872 1.04 4.344.447 2.45 1.161 4.852 1.717 7.29.737 3.186 1.414 6.396 2.152 9.582.411 1.775.87 3.537 1.342 5.299.121.47.097.857-.351 1.122-.362.217-.713.543-1.112.64-4.812 1.219-9.612 2.558-14.472 3.572-5.381 1.122-10.809 1.991-16.226 2.872-1.934.314-3.917.374-6.033.556 0 .591-.048 1.013.012 1.424.351 2.715.726 5.431 1.064 8.158.145 1.195.194 2.402.351 3.584.133 1.002.362 1.98.568 2.969.266 1.268.629 2.523.846 3.79.303 1.798.762 3.621.714 5.431-.073 3.005.87 5.793 1.366 8.665.048.29.085.567.133.857.749 4.55 1.511 9.1 2.237 13.662.157.977.665 1.532 1.559 1.846 3.434 1.195 6.928 2.124 10.531 2.583 1.233.157 2.491.157 3.736.193 1.971.06 3.591 2.185 3.373 4.284-.072.749-.193 1.497-.314 2.33.351.012.629.036.907.036 2.418.06 4.824.157 7.242.169 2.841.024 5.695.398 8.5-.447.314-.096.665-.084 1.003-.096 3.035-.048 6.069-.121 9.116-.121 2.805 0 5.598.133 8.403.121 4.05-.012 8.113-.109 12.163-.157 2.273-.024 4.546 0 6.807-.012 1.983-.012 3.966-.048 5.949-.097.326-.012.653-.12.991-.193.085-.724.133-1.388.23-2.051.35-2.294 1.451-3.44 3.736-3.778 1.136-.169 2.309-.278 3.458-.253 2.623.048 5.029-.809 7.435-1.678 1.221-.447 2.394-1.002 3.579-1.533.254-.108.46-.326.52-.362-.073-1.472-.23-2.788-.181-4.103.096-2.402.266-4.803.507-7.193.508-5.033 1.149-10.053 1.608-15.086.194-2.052.013-4.139.097-6.215.133-3.609.29-7.217.544-10.814.121-1.774.556-3.524.701-5.298.146-1.822.073-3.657.182-5.479.266-4.236.544-8.46.882-12.684.363-4.369.786-8.738 1.209-13.095.17-1.677.46-3.343.593-5.02.072-.845-.048-1.714-.109-2.571-.072-1.098-.205-2.197-.266-3.295-.181-2.933-.52-5.877-.447-8.81.06-2.679-.145-5.31-.629-7.905-.653-3.488-.665-7-.822-10.512-.012-.289-.036-.567-.061-.929-.628.072-.834.471-.991.929-.919 2.547-2.092 4.96-3.651 7.193-.375.543-.544 1.231-.822 1.847-.871 1.87-1.814 3.717-2.612 5.612-.737 1.737-2.261 2.1-3.833 2.401-2.128.399-3.506-.748-4.497-2.413-1.778-2.969-3.47-5.999-5.235-8.98-.678-1.158-1.488-2.244-2.165-3.403-1.825-3.114-3.615-6.239-5.428-9.365-.363-.628-.75-1.231-1.113-1.859-.278-.483-.616-.893-.507-1.581.108-.724-1.064-1.967-1.838-2.16-2.854-.736-5.683-1.557-8.56-2.136-2.745-.555-4.969-1.871-6.662-4.031-1.161-1.473-1.777-3.162-1.028-5.117.605-1.581 1.161-3.126 2.612-4.224 1.064-.809 2.224-1.002 3.409-.7 3.107.76 6.094 1.81 8.669 3.825.556.435 1.294.628 1.959.906 1.052.446 2.116.856 3.24 1.315.145-1.822.302-3.5.387-5.177.085-1.569.883-2.607 2.2-2.716 1.838-.157 2.975.591 3.241 2.317.169 1.135.181 2.305.169 3.464-.036 2.643-.133 5.298-.23 7.941-.036.869.242 1.569.786 2.245.907 1.122 1.681 2.353 2.551 3.5 1.632 2.148 3.289 4.284 4.957 6.396.617.785 1.33 1.497 2.08 2.342.29-.531.556-.881.689-1.28.991-2.969 1.983-5.937 2.914-8.918.447-1.425.713-2.909 1.185-4.321.967-2.909 2.019-5.805 3.046-8.702.508-1.46.98-2.932 1.56-4.356 1.064-2.631 2.031-5.323 3.361-7.809.895-1.665 2.225-3.1618 3.591-4.5014 2.261-2.2327 4.703-4.2844 7.073-6.4084.387-.35.786-.688 1.294-1.1224-.967-.7845-1.79-1.5328-2.684-2.1362-1.137-.7724-2.128-1.6293-2.866-2.8241-.653-1.062-1.475-2.0154-2.055-3.1016-.605-1.1345-.278-1.8586.846-2.4862.714-.3982 1.427-.7724 2.394-1.2793-1.245-.4224-2.261-.4465-3.264-.5068-1.741-.0966-2.346-.8086-2.201-2.5345.049-.6034-.084-1.231-.145-1.9672-.798-.0362-1.511-.1448-2.212-.0965-1.705.1328-3.108-.5672-4.413-1.5207-.291-.2172-.569-.5672-.69-.9051-.967-2.7396-.266-5.7206 2.987-6.5292.737-.181 1.523-.2413 2.297-.2775.762-.0483 1.535-.0121 2.321-.0121.992-5.0085 2.08-9.8722 5.804-13.6859-1.137-1.581-1.173-3.331-.194-4.8758.98-1.5448 2.551-2.3292 4.522-2.0154 1.028-1.5086 2.273-2.6672 4.123-2.9689 1.717-.2776 3.361-.1328 4.933.7482.907-.3982 1.813-.8206 2.744-1.2068 1.633-.688 3.253-.4707 4.752.3258.641.3379 1.088 1.05 1.705 1.6655.387-.1569.822-.35 1.269-.4948 2.926-.9414 6.299.5793 6.795 4.0551.109.7603.314 1.3999 1.161 1.6413 2.007.5793 3.325 3.2827 3.047 5.5154-.049.3862-.121.7724-.097 1.1465.024.2535.145.6517.326.7241 1.766.7604 1.657 2.4258 1.923 3.8982.181 1.0017-.085 1.8465-.786 2.6551-.665.7604-.895 1.6534-.29 2.6551 1.414 2.3052 1.245 4.3086-1.451 5.8775.496 1.3879.87 2.8241.363 4.3085-.545 1.581-1.705 2.4017-3.519 2.4982.435 1.4483-.157 2.6672-.653 3.9103-.326.8086-.773 1.5569-1.608 1.9672-.254.1327-.544.2896-.689.5069-1.789 2.7154-4.304 4.6344-6.952 6.4326-.109.0724-.169.2052-.302.3741.314.1931.568.4466.87.531 1.826.5069 3.228 1.7017 4.704 2.7879.81.5914 1.716 1.05 2.551 1.6172.955.6396 1.934 1.2672 2.793 2.0275 1.499 1.3397 2.901 2.7879 4.352 4.1876.169.169.302.374.447.555 2.564 3.307 5.127 6.614 7.702 9.909 2.055 2.619 4.087 5.262 6.215 7.808 2.031 2.438 4.207 4.767 6.275 7.193.798.942 1.438 2.028 2.188 3.017.629.845 1.221 1.75 1.971 2.462 1.354 1.28 2.176 2.909 3.204 4.405.701 1.038 1.378 2.088 2.019 3.162.242.399.568.906.495 1.292-.229 1.146-.398 2.269-1.305 3.258-1.463 1.605-3.12 3.005-4.679 4.49-1.354 1.291-2.612 2.667-3.954 3.958-1.318 1.268-2.611 2.571-4.05 3.681-2.745 2.124-5.078 4.683-7.702 6.94-.242.109-.423.326-.496.422zm-48.579 9.86c-.181 1.943-.29 3.621-.484 5.299-.29 2.582-.665 5.153-.943 7.736-.145 1.375-.145 2.775-.278 4.163-.193 1.955-.532 3.911-.641 5.866-.181 3.319-.205 6.637-.338 9.956-.085 2.064-.278 4.116-.435 6.18-.097 1.291-.206 2.594-.339 3.886-.29 2.619-.677 5.237-.871 7.868-.181 2.438-.145 4.9-.217 7.35-.024.676-.109 1.34-.169 2.016-.278 3.017-.738 6.022-.762 9.039-.012 1.279-.085 2.571-.073 3.862 0 1.002-.471 2.028-.35 2.993.29 2.329 0 4.61-.206 6.903-.024.314 0 .64 0 .954 4.715.446 7.23 1.195 8.657.253.435-2.305.87-4.61 1.294-6.915.665-3.645 1.342-7.29 1.982-10.946.593-3.367.956-6.783 1.754-10.102 1.293-5.346 2.248-10.741 3.143-16.16.677-4.127 1.245-8.291 2.6-12.298.447-1.315.725-2.703.955-4.067.447-2.655.798-5.334 1.221-8.001.121-.761.326-1.509.568-2.233.266-.761.726-1.364 1.717-1.304.423.616.798 1.171.931 2.004.568 3.56.556 7.193 1.511 10.705.677 2.486.919 5.105 1.33 7.663.532 3.283 1.04 6.566 1.596 9.836.182 1.038.52 2.052.713 3.09.375 2.027.726 4.067 1.064 6.107.303 1.798.593 3.608.847 5.419.387 2.715.725 5.442 1.112 8.158.435 3.053.919 6.095 1.366 9.148.46 3.09.907 6.191 1.379 9.281.036.265.205.507.326.772 2.853-.12 5.634-.229 8.367-.338 0-1.182.036-2.281-.012-3.367-.085-1.834-.23-3.657-.327-5.479-.084-1.629-.193-3.271-.193-4.9.012-3.995.109-7.989.133-11.984.012-1.786-.085-3.572-.109-5.347-.012-.567.109-1.146.109-1.713-.012-2.595-.073-5.202-.073-7.797 0-.82.121-1.629.145-2.45.049-1.436-.133-2.92.182-4.296.423-1.859.241-3.705.35-5.552.121-2.015.024-4.043.012-6.058 0-1.81.097-3.645-.024-5.443-.266-4.007-.109-7.99.484-11.948.326-2.197-.012-4.381-.133-6.747-1.088-.048-2.104-.012-3.083-.169-2.406-.386-4.812-.132-7.218-.096-3.325.048-6.638.012-9.963-.048-.943-.012-1.886-.302-2.829-.338-4.727-.157-9.455-.266-14.182-.399-.484-.024-.955-.012-1.596-.012zm-138.4483 13.457c-.2418.302-.4957.483-.5561.712-.5441 1.943-1.1003 3.886-1.5597 5.853-.399 1.726-.5562 3.512-.9914 5.238-.7738 3.126-1.064 6.336-2.0675 9.426-1.1123 3.403-2.5269 6.674-4.0503 9.872-.9914 2.088-1.9224 4.236-3.603 6.022-1.2816 1.364-2.0433 3.211-2.9984 4.876-1.1849 2.076-2.2972 4.2-3.5063 6.264-1.8498 3.15-3.748 6.275-5.6341 9.401-.5925.978-1.2574 1.919-1.7531 2.945-1.463 2.981-3.0831 5.841-5.1869 8.424-.8463 1.038-.7858 1.557.3265 2.293 3.3732 2.233 7.0608 3.717 10.9298 4.803 1.475.411 2.007 1.328 2.0916 2.74.0605.893-.0846 1.786-.1451 2.896h1.6685c2.1763.012 4.3405.012 6.5168.037.7738.012 1.5355.096 2.3093.072 1.1607-.036 2.3093-.157 3.47-.181 4.1107-.097 8.2094-.157 12.3202-.241 1.1123-.025 2.2246-.097 3.3369-.109 3.337-.024 6.674-.012 10.0106-.036.23 0 .46-.085.798-.157 0-.664.025-1.279-.012-1.895-.072-1.207-.157-2.402-.266-3.608-.096-1.038.049-2.137-.81-2.969-.157-.145-.169-.447-.23-.676-.7612-3.331-1.5229-6.662-2.2846-9.993-.1935-.845-.3507-1.714-.7013-2.498-1.1728-2.583-1.4629-5.395-2.1884-8.086-.4836-1.811-.9309-3.633-1.4387-5.443-.3869-1.388-1.0035-2.74-1.2212-4.164-.4473-2.824-1.2574-5.54-2.1037-8.255-1.5355-4.972-3.0105-9.969-4.546-14.941-.6408-2.076-1.4267-4.103-2.0675-6.167-1.2091-3.959-2.3456-7.941-3.5304-11.9-.0121-.145-.1572-.277-.3265-.555zm-.0725-6.083h.3627c.2781.604.6529 1.183.8342 1.811.7497 2.486 1.4509 4.984 2.128 7.482.2418.881.3022 1.798.5924 2.655.7617 2.318 1.6443 4.611 2.406 6.928.3748 1.134.4957 2.341.8584 3.476.9189 2.884 1.9103 5.744 2.8655 8.617.6408 1.919 1.3058 3.825 1.8982 5.756.4352 1.424.798 2.861 1.1607 4.309.6408 2.51 1.5476 4.948 1.8377 7.543.1451 1.327.6046 2.619.9431 3.922.4836 1.81.9551 3.621 1.4992 5.419.2902.978.133 1.967.2418 2.945.0847.76.2902 1.508.4595 2.257.2297.977.3385 2.003.7496 2.896.7254 1.581 1.2328 3.222 1.5958 4.912.133.652.387 1.291.605 1.919.435 1.279.882 2.546 1.317 3.814.194.579.351 1.182.569 1.919 2.321-.676 4.679-.085 7-.712-.06-.387-.109-.664-.157-.942-.75-4.176-1.511-8.351-2.225-12.527-.374-2.136-.653-4.284-1.003-6.421-.194-1.194-.46-2.365-.629-3.56-.399-2.908-.737-5.829-1.161-8.738-.193-1.279-.64-2.522-.798-3.801-.507-3.923-.785-7.869-1.414-11.767-.738-4.562-1.802-9.064-2.648-13.614-.4473-2.413-.7617-4.851-1.1002-7.277-.5078-3.681-1.0881-7.326-1.7773-10.983-1.0277-5.382-1.608-10.861-2.3939-16.292-.0726-.507-.2297-1.002-.3506-1.497-2.128-.181-4.1108-.35-6.0695-.519-.0967.326-.1813.459-.1813.592-.0726 2.763-.665 5.442-1.1849 8.134-.2539 1.315-.9793 2.462-.9551 3.886.0241 2.269-1.7532 3.85-4.0141 3.669-2.6841-.217-5.3682-.543-8.0401-.869-1.1486-.145-2.2731-.435-3.4096-.628-2.2367-.374-4.4734-.724-6.7102-1.074-.4473-.072-.9068-.108-1.342-.157-.1088 1.799-.1814 3.416-.3023 5.033-.133 1.822-.3627 3.633-.4594 5.455-.133 2.498-.1209 4.996-.2781 7.495-.2176 3.5-.5199 6.987-.8343 10.487-.1692 1.871-.4836 3.717-.6649 5.588-.0968 1.014-.1572 1.991-.9431 2.8-.2781.29-.3748.772-.532 1.171-.2901.712-.532 1.448-.8584 2.148-.9793 2.136-2.0191 4.236-2.9622 6.372-.5078 1.135-.8826 2.317-1.3057 3.488-.6167 1.726-.9915 3.572-1.8741 5.141-1.4145 2.486-2.2367 5.202-3.4578 7.748-1.0882 2.293-2.0796 4.635-3.1315 6.952-1.3904 3.053-2.805 6.107-4.2437 9.22 1.9344.954 3.8326 1.871 5.7309 2.8.8221-1.532 1.5838-2.981 2.3818-4.405 1.7894-3.198 3.5546-6.396 5.4044-9.558 1.197-2.04 2.5511-3.983 3.7843-5.998 2.1159-3.452 4.1954-6.928 6.2992-10.379 1.064-1.762 2.3093-3.392 3.0468-5.359.7859-2.1 1.8861-4.091 2.8292-6.143 2.2609-4.875 3.9777-9.932 5.0659-15.194.2781-1.364.6166-2.716.9551-4.067 1.064-4.2 2.14-8.4 3.2403-12.588.1572-.603.4957-1.134.7496-1.69zm174.8528-59.571c.121 0 .242.012.362.012.109.399.266.785.327 1.183.338 2.293.435 4.574.338 6.903-.193 4.418-.145 8.847-.193 13.276-.036 2.848-.06 5.696-.097 8.545-.036 2.643-.109 5.298-.121 7.941 0 .567 0 1.231.266 1.689.677 1.159.508 2.306.242 3.488-.217.942-.254 1.895-.036 2.848.109.483.411.628.846.58.714-.073.75-.7.593-1.086-.532-1.304-.012-2.559.024-3.826.024-.712.242-1.424.254-2.148.06-2.969.06-5.95.097-8.919.024-1.931.024-3.862.096-5.781.109-2.981.278-5.974.375-8.955.097-2.897.109-5.781.193-8.677.061-2.064.133-4.14.254-6.204.037-.627-.133-1.098-.532-1.569-1.33-1.532-2.623-3.089-3.917-4.646-.363-.435-.653-.905-1.124-1.581.556-.085.906-.241 1.124-.145.556.266 1.124.567 1.572.99.616.603 1.112 1.327 1.68 1.979 2.261 2.559 4.546 5.117 6.819 7.676.097.108.242.205.279.326.483 1.484 1.656 2.474 2.672 3.548 3.264 3.488 6.432 7.048 9.261 10.898.23.314.447.905.302 1.17-.484.906-1.064 1.787-1.753 2.535-1.33 1.448-2.793 2.788-4.159 4.212-1.33 1.388-2.6 2.824-3.93 4.212-.737.76-1.571 1.412-2.297 2.196-.919.99-1.765 2.04-2.623 3.078-.641.76-1.197 1.581-1.463 2.486 1.741.64 3.349 1.243 4.957 1.81.665.23 1.281.242 1.862-.338 1.257-1.255 2.563-2.474 3.869-3.681 3.47-3.21 6.964-6.396 10.434-9.606 1.692-1.569 3.566-2.957 4.981-4.816.822-1.074 1.016-2.003.351-2.896-2.358-3.162-4.752-6.312-7.158-9.462-.677-.881-1.39-1.726-2.092-2.595-1.668-2.064-3.337-4.115-5.005-6.179-1.475-1.834-2.962-3.669-4.401-5.54-.883-1.146-1.632-2.401-2.527-3.536-2.442-3.113-4.921-6.191-7.387-9.268-.629-.785-1.221-1.63-1.923-2.342-2.478-2.5341-5.307-4.622-8.366-6.4082-.315-.181-.689-.2896-1.112-.4586-.025.3138-.073.4948-.049.6758.472 2.5465.859 5.1051 1.439 7.627.532 2.281.435 4.587.604 6.88.085 1.001-.58 1.363-1.523.929-.169-.085-.326-.193-.496-.29-2.853-1.605-5.561-3.463-8.608-4.719-.387-.157-.762-.338-1.306-.567-.254.905-.459 1.69-.701 2.45-.363 1.147-.544 2.426-1.185 3.379-.532.797-.701 1.521-.738 2.39-.12 2.788-.265 5.576-.362 8.351-.121 3.404-.194 6.807.048 10.211.085 1.291.145 2.582.23 3.874.06.76.242 1.508.23 2.269-.049 2.546-.17 5.093-.23 7.639-.061 2.45-.109 4.9-.109 7.35 0 2.691.073 5.395.06 8.086 0 1.629-.157 3.258-.133 4.888.013 1.17.206 1.327 1.343 1.46 1.233.145 2.43.628 3.699.253.254-.072.568.085.859.097 1.535.109 3.083.29 4.618.302 1.62.012 3.24-.157 4.849-.254.169-.012.338-.108.664-.229 0-1.786 0-3.572 0-5.346 0-.857.049-1.714.037-2.571-.024-1.641-.109-3.271-.109-4.912 0-1.11.193-2.209.193-3.319.037-5.262.049-10.512.049-15.774 0-.579-.073-1.146-.157-1.726-.279-1.967-.121-3.874.785-5.732.303.398.593.808.617 1.243.097 1.762.169 3.536.157 5.31-.012 1.243-.254 2.486-.254 3.729 0 3.657.109 7.326.109 10.983 0 2.788-.133 5.588-.121 8.376.012 2.16.194 4.32.29 6.492.061 1.231-.108 2.499.52 3.766.556-.06 1.113-.109 1.814-.181 0-1.436 0-2.788 0-4.128 0-3.56-.012-7.132 0-10.692.024-4.671.024-9.342.097-14.012.048-2.788.217-5.576-.109-8.364-.085-.712.012-1.448.036-2.16.036-.857.097-1.714.133-2.583.048-1.207.073-2.401.145-3.608.036-.278.242-.519.351-.761zm-41.555-3.138c1.233.254 1.197 1.002 1.306 1.63.12.712.229 1.424.278 2.148.133 2.257.193 4.514.35 6.771.097 1.387.266 2.775.448 4.151.133 1.05.447 2.076.507 3.114.23 4.32.327 8.653.605 12.974.181 2.775.689 5.527.931 8.303.242 2.727.375 5.467.496 8.207.048 1.074.06 1.17 1.1 1.182 3.76.025 7.508.29 11.232.821.423.06.87-.024 1.294-.084.665-.097 1.027-.447.979-1.183-.048-.821-.121-1.641-.048-2.462.338-3.597.423-7.181.253-10.79-.084-1.822-.278-3.668-.133-5.479.182-2.281.073-4.526-.205-6.782-.048-.387-.085-.773-.085-1.147.049-2.595.254-5.214.121-7.796-.121-2.462-.121-4.9-.048-7.35.121-3.85.048-7.712.048-11.562 0-.483 0-.965-.084-1.436-.327-1.895-.677-3.79-1.052-5.672-.145-.724-.399-1.424-.689-2.414-3.325 2.86-6.408 5.515-9.492 8.17-.423-.241-.737-.422-1.063-.603.06-.603.253-1.159.157-1.653-.266-1.28 0-2.499.302-3.706.375-1.484.907-2.944 1.209-4.441.302-1.5325.387-3.1135.58-4.6824-.834-.1449-1.438 0-1.886.4948-1.16 1.2672-2.454 2.462-3.373 3.8986-1.342 2.1-2.394 4.368-3.555 6.577-.362.676-.725 1.376-.967 2.1-.786 2.317-1.499 4.658-2.273 6.976-.689 2.088-1.427 4.175-2.128 6.263-.29.869-.592 1.726-.822 2.607-.798 3.174-1.439 6.384-3.083 9.281-.109.205-.121.459-.181.688-.448 1.557-.907 3.126-1.342 4.598-1.246.447-2.165-.048-2.914-.724-.677-.591-1.27-1.328-1.717-2.112-1.378-2.378-3.023-4.562-4.715-6.71-1.475-1.883-1.475-1.907-3.579-.749-1.161.64-2.309 1.304-3.567 2.016 1.475 2.595 2.878 5.069 4.28 7.531 1.681 2.969 3.386 5.926 5.054 8.906 1.27 2.269 2.406 4.611 4.062 6.65 1.125 1.388 3.446 1.376 4.389-.132 1.04-1.666 2.056-3.38 2.902-5.154 1.378-2.896 2.2-6.082 4.498-8.496.06-.06.084-.169.121-.266.725-1.629 1.475-3.246 2.164-4.887.181-.423.242-.942.205-1.4-.35-4.321-.761-8.642-1.064-12.962-.133-1.002.085-2.04.194-3.223zm-128.1352-11.308c1.2695-.543 1.4751-.41 1.9708.664 1.1486 2.486 2.3576 4.936 3.5304 7.422.3869.821.7133 1.69 1.0519 2.535.2418.627.411 1.291.7133 1.882 1.3541 2.716 2.7445 5.407 4.1229 8.11.7375 1.449 1.5113 2.873 2.2367 4.333.7013 1.424 1.3662 2.86 2.0552 4.297.109.217.218.422.315.651.737 1.666 1.414 3.379 2.236 5.009 1.076 2.148 2.394 4.2 3.374 6.384 1.317 2.909 2.986 5.6 4.739 8.243 1.499 2.257 3.506 2.607 5.864 1.207.834-.495 1.33-1.243 1.705-2.088 1.039-2.39 1.995-4.815 3.107-7.169 1.185-2.522 2.563-4.96 3.736-7.494.967-2.1 1.729-4.285 2.66-6.397 1.293-2.908 2.623-5.793 4.014-8.641.35-.724.447-1.291.036-2.016-.568-1.001-1.016-2.075-1.523-3.101-.266-.543-.593-1.05-.943-1.69-1.04 1.014-1.717 2.016-2.406 3.054-2.31 3.451-3.894 7.277-5.901 10.873-.725 1.304-1.269 2.692-2.007 3.983-1.293 2.245-2.672 4.441-4.05 6.638-.205.326-.604.543-.907.796-.411-.386-.749-.639-1.015-.953-.423-.507-.931-.99-1.197-1.581-1.463-3.355-2.829-6.758-4.268-10.126-1.62-3.765-3.253-7.518-4.933-11.248-2.176-4.839-4.4131-9.642-6.5894-14.482-.665-1.472-1.3541-2.945-1.5718-4.634.8947-.194 1.4751 0 1.8257.808.4715 1.098.9551 2.197 1.475 3.283.4595.965.9794 1.907 1.5475 3.017 1.354-1.834 2.539-3.464 3.748-5.081.496-.664.484-1.364.169-2.052-1.475-3.1615-2.659-6.4201-3.167-9.8717-.254-1.7259-.907-2.631-2.8053-2.9327-1.8619-.3017-3.6634-.338-5.3802.1931-1.2454.3862-2.4302 1.1827-3.4458 2.0396-1.0519.881-1.9103 2.0155-2.7566 3.1137-1.8862 2.4379-3.7118 4.912-4.8 7.845-.8947 2.425-1.8135 4.851-2.7082 7.277-.532 1.436-1.1124 2.86-1.5355 4.333-.8826 3.138-1.6806 6.288-2.4907 9.437-.7375 2.873-1.4387 5.769-2.1642 8.642-.266 1.074-.3506 2.256-.8584 3.198-1.0035 1.858-1.1486 3.922-1.8861 5.974 2.3335.507 4.5339 1.002 6.7465 1.472.5924.133 1.0156-.096 1.3299-.615.6771-1.111 1.3784-2.209 2.0917-3.307 1.076-1.654 2.1763-3.283 3.2281-4.948.5925-.93 1.064-1.943 1.6564-2.873.4595-.724 1.0277-1.375 1.5114-2.088.9672-1.436 1.8982-2.896 2.8533-4.344.4957-.761 1.0398-1.509 1.4871-2.305.1572-.29.1814-.749.0847-1.087-.2297-.832-.4957-1.665-.8464-2.449-1.2816-2.8-2.6236-5.564-3.9173-8.352-.4594-.893-.7738-1.81-1.1486-2.788zm150.4902 85.434c-.145.362-.266.604-.326.857-.411 2.028-.75 4.067-1.209 6.095-.823 3.657-1.983 7.241-2.491 10.982-.314 2.281-.834 4.538-1.233 6.819-.556 3.271-.967 6.59-1.657 9.836-.955 4.526-2.14 9.003-2.744 13.59-.049.374-.242.724-.351 1.098-.205.688-.435 1.364-.58 2.064-.182.893-.254 1.81-.423 2.703-.387 2.076-1.04 4.139-1.161 6.227-.181 3.162-.991 6.252-.895 9.438.061 1.822-.242 3.657-.362 5.479-.025.362.06.724.084 1.099 5.078.325 10.047.506 15.029.337 2.357-.084 4.727-.012 7.085-.036.616-.012 1.221-.108 1.825-.157.061-.326.133-.519.121-.7-.193-3.174.218-6.336-.169-9.522-.266-2.233-.423-4.477-.822-6.71-.399-2.269-.46-4.598-.786-6.891-.846-5.817-1.729-11.622-2.648-17.427-.508-3.187-1.1-6.361-1.656-9.535-.605-3.512-1.197-7.024-1.814-10.524-.532-3.041-1.088-6.07-1.656-9.099-.315-1.955-.726-3.886-1.161-6.023zm-135.909-10.644c.181.953.387 1.653.447 2.353.085 1.038-.012 2.1.109 3.138.302 2.426.689 4.84 1.04 7.265.085.568.072 1.147.181 1.714.569 2.969 1.197 5.938 1.717 8.919.169.965.363 1.871 1.004 2.715 2.527-.398 5.041-.796 7.556-1.182.955-.145 1.898-.326 2.854-.447 2.345-.314 4.727-.446 7.024-.953 6.13-1.352 12.211-2.861 18.317-4.309.363-.084.689-.265 1.04-.398-2.043-8.991-4.075-17.886-6.118-26.877-5.175 1.484-10.144 2.908-15.222 4.369.508 1.122.943 2.027 1.318 2.969.726 1.798.169 2.932-1.644 3.463-.097.024-.182.073-.278.097-1.838.507-3.591-.616-3.954-2.51-.193-1.05-.568-2.016-1.354-2.728-4.715.785-9.382 1.593-14.037 2.402zm125.003-103.7789c-.435 1.0741-1.305 1.5931-2.26 1.9431-.98.35-1.79.8931-2.479 1.7861.568.8569 1.1 1.7017 1.668 2.5224 1.451 2.112 3.507 3.5603 5.623 4.8999.677.4345 1.463.7845 2.248.9051 2.769.4104 5.55.6035 8.355.0483 1.983-.3862 3.821-1.0138 5.38-2.293 1.548-1.2793 3.035-2.631 4.546-3.9586.242-.2051.435-.4586.75-.7844-2.007-1.2914-3.373-2.8482-2.878-5.3102-3.047-.6759-3.252-.8207-3.24-2.281.58.181 1.112.35 1.656.5069 1.862.5189 3.712-.338 4.365-2.1241.713-1.9431 1.221-3.9465 1.221-6.0344 0-.7362-.217-1.5327-.52-2.2206-.544-1.2431-1.62-1.8948-2.974-1.8827-1.269.012-2.503.2293-3.156 1.593-.217.4586-.604.869-1.015 1.1828-.266.2051-.774.3741-1.052.2534-.738-.3138-1.499-.6396-1.693-1.6051-.314-1.6293-.387-3.2103.411-4.6585-1.257-.3862-2.575-.519-3.566-1.1586-1.004-.6517-1.693-1.7862-2.648-2.8482-.351.012-.919.0603-1.499.0603-2.443-.0121-4.099-1.2189-5.09-3.3913-.133-.3017-.218-.6155-.315-.8931-.592-.1569-1.136-.2172-1.608-.4345-.943-.4344-1.572-.0965-2.091.6638-.218.3138-.448.6276-.665.9414-2.02 2.9085-2.685 6.3722-3.821 9.6308-.073.2172-.085.4948-.024.712.242.9293-.073 1.7017-.714 2.6069-1.656 0-3.433.0603-5.223-.0242-1.499-.0724-3.034 2.1121-2.152 3.5603.581.9655 1.451 1.9431 2.878 1.8586.616-.0362 1.257.0241 1.874.0965.701.0845 1.414.1931 2.104.35.749.1811 1.088.6397 1.027 1.4845-.072.9293.012 1.8827.024 2.824 1.778.1569 3.35.3259 4.933.4466.714.0603 1.221.3138 1.62 1.0258zm-94.728-9.4618c-.956-.3983-1.596-.6879-2.261-.9172-.907-.3138-1.85-.5793-2.757-.8811-1.354-.4465-2.128-1.3275-2.225-2.824-.193-3.3189-1.596-6.2154-3.373-8.955-.29-.4465-.725-.8086-1.112-1.2189-2.37 3.0051-4.462 6.0222-8.077 7.6032.46.7362.822 1.3517 1.197 1.9552.75 1.2068 1.246 2.5223 1.294 3.9223.097 2.3413-.605 4.5499-1.378 6.7343-.121.35-.424.6397-.665.9172-.315.3621-.726.6517-.992 1.05-.87 1.2793-2.116 1.9431-3.566 2.2689-1.306.2897-2.624.519-3.966.7724-.46 1.5086-.52 6.9033-.085 8.6412 7.569 1.3396 15.367-1.7138 18.873-6.8671-3.965-1.9551-4.4-2.2568-5.005-3.6206 2.067-.881 4.377-.4827 6.553-1.1827.085-.6035.206-1.1707.23-1.7379.048-1.2431.846-2.0276 1.729-2.6793.689-.5068 1.547-.7724 2.309-1.1827 1.028-.5189 2.007-1.0862 3.277-1.7982zm-73.0633 96.2357c3.1556.821 6.3233 1.557 9.624 1.907 1.0761-2.981 1.596-5.95 2.1763-9.136-1.1848-.145-2.273-.217-3.349-.423-2.0312-.374-4.0624-.796-6.0815-1.231-2.7204-.591-5.4408-1.206-8.1611-1.822-.7496-.169-1.4992-.362-2.2368-.555-.7858-.205-1.5475-.495-2.3455-.604-1.2816-.168-2.5874-.144-3.869-.337-3.2644-.507-6.4442-1.485-9.7691-1.678-.3264-.024-.6408-.205-.9551-.302-.7738-.241-1.5476-.531-2.3335-.688-.9189-.181-1.8498-.241-2.8775-.374-.6287 2.957-.7255 5.962-1.0035 9.088 2.4664.29 4.6306 1.352 7.1938 1.364.1814-1.231.3748-2.354.4836-3.488.0484-.567.2056-1.014.8222-.905 1.2574.217 2.6115.205 3.7843 1.134-.2418 1.267-.4836 2.571-.7496 3.971 5.078 1.195 9.9384 2.51 15.0405 3.077.4111-1.448.798-2.824 1.2091-4.26 1.3541.253 2.5632.471 3.6755.676.6892 1.641-.6045 2.945-.2781 4.586zm18.5347-52.487c-.8342.531-1.4145.869-1.9465 1.255-2.3093 1.726-4.6186 3.452-6.9037 5.202-4.1712 3.198-8.3545 6.372-12.4653 9.643-2.7808 2.221-5.4528 4.586-8.1611 6.903-.0846.073-.0967.254-.1934.531 2.4664.616 4.812 1.521 7.3268 1.714 3.337.265 6.5893.857 9.7933 1.834 1.596.483 3.2765.676 4.945 1.014.0967-.314.1935-.483.2056-.664.0967-2.003.8826-3.837 1.5959-5.648.6045-1.532 1.0519-3.089 1.4509-4.67.2901-1.159.4594-2.354.7496-3.512.3022-1.207.7133-2.402 1.0518-3.609.5199-1.846 1.0398-3.705 1.5234-5.564.3386-1.339.6167-2.691 1.0277-4.429zm199.5296 28.651c-4.607-6.36-10.047-11.67-14.944-17.535-.194.615-.242 1.17-.23 1.725.049 1.485.194 2.969.194 4.466.012 2.691-.073 5.37-.375 8.05-.182 1.569-.085 3.174-.133 4.755-.024.76-.194 1.532-.169 2.293.048 2.208.157 4.405.217 6.613.012.616 0 1.268-.169 1.859-.399 1.412-.314 2.8-.206 4.393.327-.254.544-.35.677-.531.69-.917 1.306-1.907 2.068-2.764 1.499-1.689 2.853-3.5 4.679-4.888 1.777-1.351 3.24-2.993 4.51-4.839.58-.845 1.487-1.461 2.261-2.173.532-.494 1.076-.953 1.62-1.424zm-186.0849-61.5983c.133-.0241.266-.0362.3989-.0603.4353-1.8706.8947-3.7292 1.3058-5.5999.1814-.8327.4111-1.6896.4111-2.5344-.0121-1.5931.0242-3.1741.3869-4.7188.3264-1.3397.3869-2.7758 1.3904-3.8741.4232-.4586.8826-.8931 1.2695-1.3879 1.0035-1.3155 2.3214-2.1603 3.8569-2.6913.6287-.2172 1.2453-.4707 1.7289-.6638.1325-2.8844.2655-5.624.3505-8.3757.012-.4948-.133-1.0017-.23-1.581-6.5889 1.0742-11.6669 3.8982-14.2664 10.2222-.677 1.6414-.7859 3.3068-.81 5.0447-.0605 4.0672-.1088 4.0672.6649 5.0206.1693-.5914.3748-1.0741.4595-1.5689.1692-1.05.266-2.1.4231-3.15.1451-.9654.2781-1.9671 1.4751-2.7637 0 .6879.0604 1.1465-.0121 1.581-.1209.6879-.3748 1.3517-.4836 2.0396-.1693 1.0862-.1935 2.1965-.399 3.2827-.2781 1.4603-.6408 2.9086-1.0277 4.3568-.3264 1.231.0725 2.2086.8101 3.1258.145-.1328.266-.181.278-.2534.7497-3.3913 1.4872-6.7706 2.2368-10.1619.2176-.9896.4594-1.9672.7617-2.9327.0725-.2413.4473-.3982.6891-.5913.1209.2775.3628.5672.3265.8206-.1451 1.0017-.3748 1.9914-.5925 2.981-.8584 3.9344-1.741 7.8688-2.5994 11.8032-.2418 1.1827.6045 1.8465 1.197 2.6309zm-33.0192 73.8003c1.0398-4.212 2.0554-8.364 3.0952-12.576-1.8619-.639-3.603-.977-5.3803-1.038-1.5838-.06-3.0589-.458-4.4613-1.074-1.4509-.627-2.938-.784-4.534-.965-.7375 1.774-1.6685 3.439-2.1037 5.237-.6045 2.45-.8464 4.985-1.2574 7.555 4.7515 1.557 9.6603 1.931 14.6415 2.861zm43.1752 26.804c2.0309-.313 3.8809-.639 5.7309-.893 2.551-.35 2.043.097 2.418-2.474.242-1.617.278-3.21-.266-4.839-.895-2.692-1.608-5.431-2.382-8.159-.447-1.581-.822-3.174-1.293-4.743-.266-.857-.448-1.955-1.064-2.426-.557-.422-1.657-.12-2.5152-.181-1.197-.072-2.3819-.181-3.6393-.277-.1088.724-.0362 1.436-.3385 1.919-.4715.748-.2055 1.412-.0725 2.076.8705 4.127 1.9223 8.23 2.0674 12.491.0121.386.1209.76.2056 1.134.2297 1.135.4715 2.257.6891 3.391.1814.93.3023 1.883.4595 2.981zm-73.9938-14.808c13.4809 2.595 26.8892 5.178 40.5031 7.796-.3869-1.798.8101-3.258.5683-4.634-3.0831-1.291-6.0332-1.424-8.9833-1.352-.3748.616-.7375 1.243-1.1365 1.835-.1209.181-.3506.458-.5078.446-1.342-.108-2.817.254-3.8447-.82.1088-1.135.2176-2.185.3143-3.138-4.9692-1.014-9.8175-1.992-14.6778-2.981-.9794.772-.1088 2.076-.8826 2.993-1.3542.302-2.6599 0-3.9174-.736 0-1.038 0-2.028 0-3.017-2.3092-.423-4.546-.845-6.7706-1.256-.8585 1.219-1.0156 2.378-.665 4.864zm229.4167 100.617c2.297.712 4.595 1.557 6.964 2.1 2.007.458 3.99 1.134 6.118.977 1.052-.072 2.116-.024 3.18-.024 1.257.012 2.515.012 3.76.048.653.024 1.137-.181 1.354-.832.641-1.956-.677-3.959-2.37-4.224-1.076-.169-2.2-.025-3.288-.133-1.91-.181-3.833-.374-5.719-.688-1.124-.193-2.2-.628-3.289-.978-.87-.277-1.765-.519-2.563-.929-3.167-1.653-6.516-1.328-9.974-1.159-.097.797-.23 1.509-.254 2.209-.037 1.774-.024 3.56-.024 5.334 0 .423.06.833.096 1.376h5.187c.29-1.014-.242-2.196.822-3.077zm-87.861-149.543c-.556 1.412-.496 1.665.556 2.196 1.148.579 2.297 1.147 3.482 1.653 1.282.544 2.599 1.026 3.905 1.521 1.125.423 2.273.809 3.385 1.255.363.145.69.411 1.064.652-.652.772-1.293.845-2.055.531-1.028-.422-2.08-.784-3.107-1.195-1.608-.639-3.216-1.291-4.812-1.955-.593-.253-1.161-.555-1.753-.833-.073.073-.158.157-.23.23.169.35.23.869.508 1.038 1.354.82 2.684 1.81 4.171 2.268 3.639 1.123 7.351 2.004 11.051 2.909.701.169 1.463.41 2.248-.024 1.173-.652 2.407-1.231 3.628-1.798.689-.326 1.064-.797 1.052-1.569-.025-.821-.037-1.63-.037-2.45 0-1.774.024-3.56-.012-5.335-.024-1.158-.06-2.317-.217-3.451-.049-.411-.363-.966-.702-1.123-.495-.217-.991.085-1.318.604-.399.627-.616 1.255-.544 2.039.182 1.956.448 3.923.206 5.974-.641-.108-1.258-.084-1.753-.301-2.987-1.364-5.937-2.8-8.899-4.2-1.753-.833-3.542-1.545-5.477-1.798-.399-.049-.834-.157-1.1.386 3.978 1.979 8.173 3.319 12.296 5.479-.81.362-1.306.664-1.922.398-1.584-.7-3.18-1.388-4.764-2.112-2.491-1.122-4.981-2.269-7.545-3.439-.338.494-.592.881-.882 1.315 1.354 1.171 2.998 1.34 4.437 1.979 1.403.628 2.769 1.34 4.171 1.98 1.403.651 2.829 1.279 4.353 1.955-.701.688-1.33.76-2.007.531-.593-.205-1.197-.411-1.753-.676-2.829-1.352-5.647-2.74-8.464-4.103-.387-.193-.773-.362-1.16-.531zm-93.4718 27.202c-1.5476-.362-2.9864-.688-4.4252-1.013-.5199-.121-1.0397-.23-1.5596-.338-1.6927-.338-3.3854-.688-5.078-1.014-.6771-.133-1.1245.193-1.3542.796-.2539.676-.4715 1.352-.665 2.052-.8946 3.138-1.8498 6.276-1.9707 9.571 2.007.844 9.6361 2.558 11.1716 2.474.2418-1.123.6045-2.281.7375-3.464.2297-2.136.7013-4.164 1.7411-6.058.5078-.918.8947-1.895 1.4025-3.006zm146.8748 125.092c.061-.374.133-.651.158-.929.193-2.003.386-4.019.556-6.022.109-1.243-.061-1.436-1.282-1.521-.532-.036-1.064-.024-1.596-.012-1.294.036-2.599.012-3.881.169-1.04.133-2.079-.181-3.131.314-1.608.748-3.301 1.291-4.957 1.931-.665.253-1.306.688-1.995.772-1.899.242-3.821.338-5.731.507-.617.06-1.27.085-1.85.266-1.886.579-2.43 1.4-1.947 3.318.17.652.484.966 1.173 1.05 3.011.375 6.009.821 9.044.133 1.209-.277 2.466-.386 3.675-.7 2.237-.591 4.268-1.653 6.166-2.908.811.229 1.077.808 1.077 1.544.012.652 0 1.304 0 2.088zm-192.855-120.819c4.2801.495 8.0765 2.438 12.2356 2.184.1088-.748.1572-1.364.2902-1.967.2055-.893.5078-1.75.6891-2.643.3265-1.557.5199-3.138.9189-4.671.2902-1.146.8101-2.244 1.2695-3.512-.4836-.084-.8826-.169-1.2937-.229-.7617-.097-1.5475-.072-2.273-.302-1.2453-.374-2.4664-.688-3.7964-.724-3.6755-.084-3.3128-.374-4.7636 2.824-.7496 1.654-1.2333 3.416-1.8499 5.129-.4473 1.256-.9068 2.499-1.4267 3.911zm58.0223 19.068c.7012-2.655 1.076-5.105.544-7.603-.2418-1.171-.8705-2.329-1.9344-2.715-1.2816-.459-2.7446-.435-4.135-.604-1.4266-.181-2.8654-.314-4.2921-.519-1.3179-.193-2.6357-.434-3.9415-.664-.7254 3.392-1.064 6.783-2.8171 9.873 5.5133 1.508 10.9903 1.737 16.5761 2.232zm63.4267-47.478c-.073-.821-.133-1.46-.206-2.245-.918 0-1.68-.06-2.442.012-1.826.181-3.639.423-5.465.628-.737.084-1.487.326-2.2-.133.109-.857.689-1.038 1.354-1.11 1.197-.121 2.406-.229 3.603-.35 1.668-.181 3.325-.362 4.993-.543-.169-1.569-.713-2.076-2.031-1.992-.484.037-.955.145-1.427.218-1.995.313-4.05.108-6.009.796-.423.145-.979-.072-1.523-.133.302-1.098 1.088-1.267 1.838-1.387 1.04-.182 2.103-.302 3.155-.399 1.524-.133 3.035-.229 4.607-.338-.883-1.581-2.491-2.389-4.256-2.196-2.89.302-5.537 1.255-7.919 2.908-1.137.797-2.189 1.726-3.204 2.68-.895.832-.907 1.182-.363 2.305.484 1.001.979 1.991 1.523 2.957.52.917 1.113 1.798 1.669 2.703 1.427.048 2.769.145 4.111.145 2.128 0 4.268.06 6.25-.929.786-.399 1.608-.725 2.165-1.69-.46 0-.75-.024-1.016 0-1.729.193-3.458.374-5.175.591-.58.073-1.185.242-1.438-.555.326-.627.798-.99 1.559-1.062 2.527-.278 5.066-.579 7.847-.881zm-21.848-7.181c-.072-.362-.096-.543-.145-.724-.326-1.231-.749-1.4-1.644-.555-1.741 1.653-3.567 3.246-4.57 5.515-.52 1.183-1.221 2.317-1.511 3.548-.714 3.054-.194 6.131.145 9.185.121 1.062.58 2.076.894 3.113.121.013.23.025.351.037.23-.387.471-.773.665-1.171.254-.519.423-1.074.713-1.581 2.019-3.512 4.026-7.024 6.118-10.5 1.088-1.81 2.297-3.56 3.579-5.25.629-.82 1.523-1.448 2.345-2.112.411-.338.786-.603.291-1.194-2.431.217-4.631 1.556-7.231 1.689zm-17.591 151.909c1.027.47 2.128.7 2.793 1.364 1.003 1.013 2.273 1.206 3.47 1.605 1.136.386 2.333.591 3.518.82 3.252.616 6.493 1.388 9.89.712.484-.603.556-1.363.435-2.136-.169-1.001-.701-1.943-1.644-2.208-1.112-.314-2.261-.797-3.518-.326-.544.205-1.258.133-1.862.012-3.156-.676-6.299-1.388-9.443-2.124-.363-.085-.907-.254-.991-.507-.351-1.026-1.161-.966-1.899-.869-2.236.302-4.461.7-6.686 1.062-.072.012-.133.121-.314.29.145 2.148.302 4.381.447 6.565 1.681.495 3.845.543 5.042.097 0-.713-.06-1.485.024-2.233.109-.712-.06-1.557.738-2.124zm-8.512-187.077c1.245-.0724 2.551.0724 3.712-.2776 1.294-.3982 2.624-1.0499 3.639-1.943 1.342-1.1828 1.995-2.9327 2.624-4.5982.157-.4103.121-.9414.036-1.4-.206-1.0861-.568-2.1361-.713-3.2223-.423-3.2465-3.942-6.0464-7.363-5.8775-.968.0483-1.935.1087-2.89.0604-1.8257-.0966-3.1919.8448-4.1954 2.1361-.8947 1.1586-1.4509 2.5827-2.128 3.9103-.81 1.6172-.8947 3.343-.3869 5.0206.3507 1.1706.7496 2.4982 1.5597 3.343 1.6201 1.6655 3.5183 3.0654 6.1056 2.8482zm-61.7097 186.932c.4715-.869.8463-1.666 1.3178-2.378.4595-.712.9552-.724 1.5476-.144.7496.736 1.4146 1.581 2.2247 2.244 1.3299 1.099 2.5873 2.245 4.1833 3.03 2.1763 1.074 4.546 1.182 6.8311 1.725.931.23 1.8982.326 2.8533.471.532.085.9068-.109 1.2091-.579 1.076-1.714.0967-4.055-1.8982-4.309-3.7964-.482-7.0004-2.269-10.0835-4.369-.4352-.289-.8584-.651-1.1486-1.074-.6045-.881-1.4508-1.303-2.4423-1.641-.9914-.338-1.9102-.893-2.8654-1.352-.2902-.145-.6045-.241-1.0398-.422-1.1002 2.534-2.7687 4.682-4.014 7.169 1.1728.567 2.1521 1.062 3.3249 1.629zm59.1224-128.363c-.3022.326-.5319.471-.6045.676-.6529 1.81-1.9103 3.21-3.1193 4.635-1.9708 2.305-3.8811 4.646-6.4805 6.311-1.0277.652-1.9103 1.473-1.8257 2.897.0242.362-.2176.736-.3144 1.098-.2418.845-.1934.978.665 1.231 1.9345.58 3.8811 1.147 5.8397 1.654.665.169 1.4025.108 2.0433.157.399-.966.7134-1.775 1.064-2.559 1.5718-3.512 3.1556-7.012 4.7157-10.536.169-.374.35-.905.205-1.231-.6528-1.424-1.4145-2.8-2.1883-4.333zm-12.1872 11.417c.5804-.398.931-.579 1.197-.844 1.5959-1.545 3.3007-2.994 4.7032-4.683 1.8498-2.221 3.47-4.622 5.1384-6.988.1935-.277.2298-.857.0847-1.183-.8222-1.798-1.7048-3.56-2.5874-5.322-.1572-.326-.3748-.627-.7012-1.171-3.8206 5.733-7.9072 11.031-11.4135 17.15 2.0554.06 3.071 1.171 3.5788 3.041zm178.7945 24.114c.29.217.52.301.628.482.363.568.726 1.135 1.016 1.75.798 1.678 1.523 3.404 2.345 5.069.617 1.243 1.355 2.426 2.6 3.198.604-.277.701-.663.387-1.267-.834-1.569-1.657-3.162-2.43-4.767-.714-1.472-1.379-2.969-2.032-4.477-.181-.411-.217-.882-.386-1.582.519.266.846.326.991.519.858 1.195 1.741 2.402 2.503 3.657.616 1.026 1.076 2.149 1.644 3.211.157.313.423.567.725.953.46-.893.133-1.581-.084-2.221-.593-1.75-1.548-3.282-2.684-4.755-1.463-1.895-2.769-3.91-4.135-5.877-1.85.543-3.543 1.05-5.26 1.52-1.076.302-1.209.338-1.1 1.473.157 1.581.387 3.15.689 4.707.339 1.701.847 3.367 1.161 5.068.206 1.099.653 2.04 1.354 2.825.653.724 1.366 1.448 2.515 1.532.012-.241.06-.386.024-.507-.919-2.534-1.862-5.056-2.793-7.579-.121-.314-.29-.639-.278-.965 0-.254.242-.495.484-.93.931 2.016 1.729 3.802 2.587 5.552.871 1.762 1.814 3.5 2.817 5.395.315-.061.75-.133 1.246-.217-.121-.35-.17-.531-.242-.7-1.246-2.825-2.503-5.637-3.748-8.461-.339-.784-.75-1.544-.544-2.606zm-185.1178-103.4653c1.2695-.712 2.1884-1.2551 2.406-2.5827.133-.8448.5078-1.6534.798-2.462.8705-2.4379.8221-4.8154-.5199-7.0602-.5199-.8569-1.1244-1.7861-2.1642-2.0034-1.6443-.3379-3.3128-.6396-5.0176-.362-.3264.0482-.7375.0965-.943.3017-1.2091 1.3034-2.4544 2.643-2.7566 4.4412-.2419 1.4483-.5078 2.9207-.266 4.4413.1088.6638.278 1.219.8221 1.8586.2056-.6879.4111-1.1707.5078-1.6775.1451-.8086.2418-1.6172.3144-2.4259.0725-.8448.4594-1.4241 1.2816-1.762 1.0397.5793.4957 1.4241.3627 2.1603-.3023 1.5448-.6529 3.0896-.9673 4.6223-.1813.8448.1209 1.4 1.064 1.6052.7496-2.631 1.209-5.3706 2.8654-7.9895.266.6396.5683 1.0017.5199 1.3034-.1209.7845-.411 1.5448-.6045 2.3172-.4232 1.6655-.8342 3.331-1.2695 5.1171h2.007c.4353-1.3637.8947-2.7396 1.3179-4.1154s.4111-2.9086 1.4509-4.0913c.7858.5672.8463 1.1465.4957 1.9431-.8947 1.931-1.4146 3.9826-1.7048 6.4205zm5.4407 101.0033c-1.9586-.29-3.6029-.592-5.2714-.761-1.0882-.108-2.2005.061-3.2886-.06-2.5149-.278-5.0297-.64-7.5929-.99-.8826 2.076-.9914 4.224-1.342 6.481 5.4528.76 10.7363 1.919 16.2617 2.004.4232-2.257.798-4.321 1.2332-6.674zm19.2961-12.431c1.487 5.358 2.938 10.572 4.45 15.967 1.886-.423 3.724-.845 5.622-1.28-.544-3.62-1.052-7.036-1.584-10.548-2.672-.808-3.531-3.415-4.981-5.346-1.222.422-2.298.784-3.507 1.207zm6.626-54.49c-.629.724-1.064 1.146-1.415 1.629-.314.422-.507.929-.81 1.364-.786 1.074-1.523 2.136-.592 3.488.024.036.024.096.024.144.06 2.293.617 4.538.544 6.867-.097 3.102-.955 5.914-2.225 8.726.472.966.968 1.967 1.5 3.029 1.656-3.077 3.24-5.998 4.787-8.918.883-1.666 1.717-3.368 1.028-5.347-.048-.133-.024-.289-.048-.434-.46-3.488-1.632-6.795-2.793-10.548zm-5.042-43.2907c.738.3138 1.475.5552 2.14.9172.568.3138 1.052.2897 1.632.0724 1.657-.6034 3.035-1.581 4.329-2.7758 1.378-1.2672 2.37-2.7275 2.974-4.6464-.218-.1569-.447-.3259-.677-.5069-2.672-2.112-5.67-3.3792-9.092-3.6085-.665-.0483-.979.2293-1.016.8931-.084 1.243-.121 2.4982-.326 3.7292-.327 1.9792-.085 3.9223.036 5.9257zm23.927 93.1337c.194.471.242.712.375.906 2.37 3.343 5.441 5.853 9.249 7.325 1.439.555 3.071.809 4.691.471 1.826-.386 2.817-2.897 1.802-4.429-.786-1.195-1.983-1.823-3.18-2.438-1.705-.881-3.385-1.895-5.392-1.943-1.596-.036-3.18-.024-4.776-.012-.834.012-1.693.072-2.769.12zm-54.4069-7.205c-1.7169 2.631-3.3128 5.407-3.7723 8.617 3.8569.58 7.5082 1.449 11.3651 1.304.3023-2.704.6045-5.31.9068-8.002-2.8534-.639-5.5979-1.255-8.4996-1.919zm172.1199-35.663c-.217-1.701-.326-3.222-.604-4.706-.653-3.44-1.403-6.8796-2.116-10.3071-.061-.2655-.145-.6396-.339-.7603-.834-.5069-1.571-1.2551-2.66-1.3879-.06.3983-.108.7241-.169 1.0621-.254 1.412-.616 2.812-1.402 4.0068-1.028 1.5568-1.935 3.162-2.443 4.9604-.266.941-.181 1.183.617 1.605.931.495 1.934.929 2.732 1.593 1.862 1.593 4.075 2.583 6.384 3.934zm-230.6016 46.163c2.4423.628 4.7757 1.086 7.0971 1.255.9189-3.62 1.8015-7.072 2.6478-10.524.1814-.76.2297-1.556.3507-2.474-.6529.109-1.0761.181-1.4993.266-1.3783.253-2.7445.688-4.1228.712-1.1849.024-1.8378.507-2.2368 1.448-.5199 1.231-1.0518 2.486-1.3541 3.79-.4111 1.774-.5924 3.596-.8826 5.527zm111.0516-44.642c9.744-2.583 19.296-5.117 28.956-7.676-.314-1.074-.58-2.0151-.882-3.0772-2.007.5552-3.881 1.0259-5.719 1.5812-2.999.905-5.961 1.907-8.959 2.776-.967.277-1.947.929-3.035.301-.121-.072-.363.061-.544.109-2.817.845-5.634 1.678-8.439 2.546-.677.206-1.318.544-2.056.845.23.881.436 1.642.678 2.595zm106.48 58.75c-.217 1.135-.519 2.245-.157 3.549 7.871.12 15.73.893 23.806.108-.254-1.098-.471-2.064-.725-3.15-7.69-.169-15.282-.338-22.924-.507zm-192.7219-34.118c1.1123.362 1.9103.411 2.8412-.398 2.0917-1.834 4.3405-3.512 6.541-5.238 3.9052-3.053 7.8467-6.07 11.7519-9.148 4.1592-3.283 8.2337-6.686 12.4653-9.884 1.2574-.954 1.7894-2.124 2.4181-3.741-.9309.7-1.6201 1.206-2.2972 1.713-2.5269 1.919-5.0659 3.826-7.5807 5.757-1.4146 1.086-2.7929 2.209-4.2196 3.283-2.2972 1.738-4.6306 3.427-6.9278 5.189-1.064.821-2.0191 1.786-3.0831 2.607-1.7531 1.34-3.6151 2.559-5.3319 3.947-1.9828 1.593-3.881 3.294-5.8034 4.972-.2902.229-.4716.567-.7738.941zm180.5589-26.394c.097.048.194.109.291.157.411-.302.822-.604 1.221-.917 1.922-1.533 3.796-3.126 5.755-4.598.761-.568 1.04-1.099.822-2.052-.726-3.1018-1.366-6.2155-2.043-9.3172-.012-.0724-.133-.1086-.194-.169-.097 0-.217-.0362-.29 0-1.862 1.1466-3.76 2.281-3.651 4.8999.012.2897-.061.5793-.109.8569-.206 1.1827-.447 2.3534-.641 3.5484-.193 1.183-.351 2.365-.52 3.548-.205 1.352-.423 2.691-.641 4.043zm-122.476-21.2771c.375-2.812-.037-5.5516.048-8.1343-1.2089-.531-2.2124-.9775-3.228-1.412-1.1244-.4707-1.3179-.4345-2.128.4345-1.0518 1.0982-2.2971 1.8827-3.6996 2.4499-.2902.1207-.5441.3138-.9189.5431 2.7082 3.1016 5.8155 5.2981 9.9265 6.1188zm18.365 96.2841c1.258-.954 1.499-2.124.786-3.379-.423-.749-.834-1.509-1.197-2.293-.846-1.762-1.668-3.536-2.551-5.419-1.886.495-3.796.965-5.67 1.532-.315.097-.629.568-.738.93-.23.724-.363 1.496-.459 2.257-.061.494-.012 1.001-.012 1.605 1.68-.338 3.179-.628 4.679-.93 0-.434 0-.844 0-1.544.411.35.701.495.846.736.846 1.388 1.668 2.8 2.503 4.188.495.857.919 1.774 1.813 2.317zm-94.4627-25.2c-2.3214-.772-4.9209-.205-7.0246-2.196-.4836 2.124-.9431 3.922-1.2937 5.745-.1814.989.1572 1.544 1.064 1.75 2.1883.47 4.4009.844 6.5167 1.243.2539-2.257.4957-4.381.7376-6.542zm208.8747 10.935c-.894-.29-13.275-.664-14.218-.411.109.954.206 1.931.327 3.018 4.666-.073 9.104 1.279 13.746.482.037-1.026.097-2.063.145-3.089zm-1.402-72.4607c.157 2.981 1.983 10.1257 2.793 11.0787 1.064-1.472 4.002-10.1494 3.929-11.7304-2.164.8327-4.485-.2293-6.722.6517zm-150.6233 46.5127c.6408-.941 1.2453-1.798 1.8136-2.679.6771-1.05 1.2937-2.148 1.9949-3.174 2.6237-3.85 5.2352-7.712 7.9193-11.514.665-.941.4957-1.653-.2297-2.534-4.7274 6.191-8.8986 12.66-13.3238 19.189.7013.266 1.2091.471 1.8257.712zm21.5693-53.6211c.23 3.9706 1.802 7.5067 3.228 11.4171 1.101-1.7139 1.995-3.126 2.902-4.5259.314-.4707.266-.881-.024-1.3396-.967-1.4845-1.91-2.9931-2.89-4.4655-.737-1.0861-1.789-1.3637-3.216-1.0861zm3.385 31.8251c.121-.024.254-.048.375-.06.955-1.63 1.62-3.428 1.596-5.286-.036-2.39-.471-4.768-.761-7.145-.025-.229-.218-.447-.424-.881-1.16 2.003-2.188 3.838-3.276 5.636-.435.712-.387 1.303-.036 2.015.362.725.556 1.533.894 2.269.508 1.159 1.088 2.305 1.632 3.452zm-11.6306 34.48c-1.6564-.374-3.0589-.748-4.4735-1.001-1.3783-.242-2.6115-1.171-4.3888-1.038.3023.712.6529 1.182.7012 1.689.121 1.267 1.2212 1.883 1.7411 2.885.0846.169.3869.253.6166.301.9431.193 1.8861.387 2.8413.519.9793.133 1.9707.193 2.9742.29-.0121-1.316-.0121-2.462-.0121-3.645zm13.2876-2.136c-.29-.664-.46-1.159-.713-1.617-.279-.495-.702-.917-.956-1.436-1.076-2.257-2.103-4.538-3.167-6.795-.158-.35-.448-.628-.665-.941-.121.048-.254.096-.375.144-.399 1.268.314 2.438.532 3.657.242 1.316.387 2.667.713 3.959.302 1.243.774 2.45 1.221 3.85 1.161-.278 2.213-.531 3.41-.821zm123.299-58.9313c.338.1086.471.1931.604.1931 2.394-.1931 4.788-.35 7.17-.6155.375-.0362.822-.4949 1.015-.869.327-.6758.472-1.4362.774-2.4017-1.233.2173-2.309.4104-3.373.6035-.979.1689-1.959.4103-2.938.4948-1.076.0845-2.164.0241-3.373.0241.036.8811.084 1.75.121 2.5707zm-133.9146 59.4983c1.9103.242 3.4946.423 5.2476.145-.677-2.51-.847-4.996-1.947-7.555-1.1364 2.559-2.1762 4.888-3.3006 7.41zm94.8736-26.635c-.314-.447-.459-.7-.64-.918-.81-.941-1.064-.989-2.213-.434-.737.35-1.487.688-2.225 1.026-.64.302-1.269.603-2.055.965.508.761.919 1.364 1.33 1.98 1.983-.881 3.809-1.714 5.803-2.619zm-86.422-23.088c-.206.181-.387.278-.472.435-1.1 1.798-2.225 3.584-3.264 5.419-.339.591-.157 1.182.532 1.593.749-1.123 1.463-2.197 2.176-3.283.496-.76.979-1.533 1.463-2.305.423-.676.302-1.255-.435-1.859zm-50.6836 56.747c-.4111 2.124-1.1607 4.043-1.2454 6.216.5925.096 1.0398.157 1.596.241.4715-2.112.9189-4.091 1.3904-6.155-.6287-.109-1.0882-.181-1.741-.302zm205.3086 0v3.331c1.064-.265 1.971-.422 2.817-.724.786-.29 1.874.241 2.527-1.026-1.802-.543-3.458-1.026-5.344-1.581zm-224.2182 2.293c.4353-1.967.8585-3.922 1.2816-5.853-1.7894-.483-2.2004-.217-2.1883 1.364.012.965.0362 1.882-.3749 2.824-.2176.507-.0362 1.183-.0362 1.871.5078-.085.8705-.145 1.3178-.206zm87.4142-12.201c.097.109.206.217.302.326 1.306-.386 2.612-.785 4.123-1.231-.931-1.074-.943-2.438-2.055-3.452-.847 1.533-1.608 2.945-2.37 4.357zm-15.935-47.116c1.003-1.412 1.874-2.595 2.696-3.814.725-1.0741.653-1.4844-.375-2.6309-.991 1.593-1.971 3.1739-2.986 4.8149.181.459.375.93.665 1.63zm3.385 164.351c2.201.157 2.672.109 3.506-.41-1.197-.604-2.309-1.28-3.784-1.316.109.64.193 1.147.278 1.726zm-18.1477-194.2454c-.3264 1.2793-.6166 2.4137-.9551 3.7171 1.2815-.35 1.9707-1.062 2.5148-2.0154-.3869-.5069-.7375-.9655-1.0882-1.4121-.0604-.0603-.1571-.0965-.4715-.2896zm18.3047 57.5554c.049-1.883-.109-2.57-.689-3.451-.907.965-.749 1.894.689 3.451zm102.999 135.242c-.943.471-1.838.603-2.563 1.545 1.04-.073 1.814-.133 2.636-.206-.025-.494-.037-.808-.073-1.339zm42.474.64c.339 1.387.858 1.544 2.406.989-.762-.314-1.487-.603-2.406-.989z" fill="#000"/><path d="m144.215 45.2094c-2.067 0-3.893.0121-5.719 0-1.753-.0121-3.53.3862-5.549-.1569.435-.7.713-1.2913 1.124-1.7741 1.124-1.3155 2.334-2.5706 3.47-3.8861.532-.6034.979-1.2793 1.596-2.1-3.555-1.7861-6.952-3.4878-10.349-5.1895-.049-.8086.435-1.1224 1.027-1.4482 2.37-1.2914 4.728-2.6069 7.085-3.9224.29-.1568.556-.3499.895-.5672-2.273-2.8241-4.486-5.5757-6.734-8.3877.906-.6517 1.801-.6517 2.72-.6759 2.636-.0844 5.271-.2172 8.028-.3379-.411-3.3672-.822-6.7102-1.257-10.16182.568-.27758 1.184-.27758 1.898.13275 2.055 1.17066 4.147 2.25685 6.238 3.36717.363.1931.762.3379 1.294.5793.568-1.76204 1.076-3.40338 1.608-5.03265.339-1.04998.617-2.13616 1.088-3.12579.593-1.24307 1.052-1.17066 1.923-.09655 1.052 1.30342 2.188 2.55856 3.373 3.75336.883.88102 1.922 1.61721 3.023 2.52236 1.1-.97757 1.886-2.71546 3.095-4.11542 1.197-1.37583 1.354-3.45165 3.192-4.5981729.556.7965329 1.233 1.5447929 1.656 2.4137329.544 1.11032.846 2.32926 1.318 3.48785.484 1.1948 1.04 2.36547 1.572 3.56027 1.197-.12069 1.958-.82067 2.817-1.32756 2.369-1.3879 4.727-2.79993 7.109-4.18783.399-.22931.87-.33793 1.463-.56723.568 1.93099.302 3.75336.29 5.55159-.012 1.82234-.181 3.63264-.29 5.63604.592-.0603 1.064-.0362 1.499-.1448 3.325-.8086 6.722-.6155 10.084-.8689 1.221-.0966 1.874.4224 1.16 1.7499-.689 1.2914-1.342 2.6069-2.297 3.7896-.967 1.2069-1.56 2.7275-2.382 4.2482 3.785 1.0379 7.375 2.0275 11.015 3.0292.229.6276-.025 1.0379-.399 1.5448-1.064 1.4482-2.66 2.2086-4.014 3.2706-1.052.8328-2.177 1.5689-3.386 2.4379.617 1.1948 1.137 2.3775 1.826 3.4637.774 1.2189 1.717 2.3172 2.539 3.4999.592.8569 1.112 1.7741 1.644 2.6431-.604.6517-1.209.6637-1.837.5189-1.403-.3258-2.793-.7241-4.22-.9655-1.548-.2655-3.131-.3982-4.848-.6155.048.4707.024.7966.108 1.0862.702 2.2086 1.439 4.393 2.116 6.6016.157.531.145 1.1103.194 1.6051-2.249.7845-3.918-.4827-5.695-1.231-1.028-.4345-2.031-.9051-3.047-1.3396-.241-.1086-.52-.1207-.943-.2173.121.3862.145.6155.254.8086 1.657 2.7638 3.168 5.624 5.332 8.0619.629.7121 1.04 1.6172 1.608 2.4017 1.669 2.3051 3.385 4.574 5.054 6.8791 1.56 2.1483 3.083 4.3086 4.594 6.493.327.4707.496 1.0379.774 1.6413-.858.3138-1.547-.0241-2.092-.531-1.487-1.3758-2.901-2.8241-4.364-4.224-1.342-1.2914-2.708-2.5344-4.026-3.8379-.653-.6396-1.246-1.3396-1.85-2.0396-2.213-2.5344-4.365-5.1292-6.626-7.6032-1.946-2.1241-4.026-4.1396-6.045-6.1913-.169-.1689-.375-.3017-.653-.5189-2.067 2.993-2.926 6.6257-5.308 9.4135-1.16-.5793-1.596-1.6172-2.164-2.5465-.568-.9413-1.161-1.8706-1.741-2.7999-.556-.8931-1.124-1.7862-1.729-2.7396-.907.3862-1.16 1.3155-1.656 2.0396-1.342 1.931-2.684 3.8741-4.014 5.8171-.169.2414-.302.4949-.435.7-.956-.3862-1.367-.9413-1.693-1.6051-.883-1.8224-1.777-3.6327-2.708-5.4309-.46-.881-.992-1.7379-1.548-2.7034-2.829 1.8586-5.513 3.6206-8.209 5.3826-.786-.7-1.209-1.2431-.702-2.2206.315-.6155.218-1.4121.375-2.112.314-1.4121.665-2.812 1.004-4.2241.157-.4948.278-1.0017.447-1.762zm49.97-29.7252c-.738.0362-1.112.0483-1.487.0845-.907.0845-1.814.2293-2.721.2776-2.152.0845-4.316.1207-6.48.1931-1.439.0483-2.152-.5793-2.08-2.0276.073-1.4844.278-2.9688.411-4.4533.121-1.30341.52-2.60683.206-4.13955-1.753 1.17066-3.313 2.32925-5.005 3.28268-1.729.97756-3.591 1.74997-5.332 2.59477-2.032-2.79994-3.047-5.88952-4.172-9.24462-2.091 3.14993-4.026 6.04641-5.851 8.79812-1.802-.169-2.805-1.18278-3.7-2.34137-.592-.76033-1.149-1.55686-1.789-2.28098-.774-.88102-1.294-2.0034-2.455-2.71546-.217.59137-.556 1.08619-.532 1.56893.085 1.89479-.713 3.57233-1.173 5.33438-.181.6879-.495 1.3275-.737 1.931-1.729.1689-1.983.181-2.769-.3259-1.487-.9775-2.938-2.0034-4.401-3.02922-.532-.37413-1.04-.78447-1.801-.74826.544 3.35508 1.608 6.50498 1.366 9.94458-1.681.1328-3.24.3379-4.812.3621-1.56.0241-3.119-.2897-4.739.0241.072.2293.084.3741.169.4828.955 1.2551 1.898 2.5223 2.889 3.7413.859 1.062 2.116 1.8465 2.286 3.4878-.69.6034-1.33 1.3517-2.141 1.8224-1.825 1.0741-3.748 2.0034-5.622 2.993-.266.1448-.532.3138-.906.5431.338.2293.532.3862.737.4827 2.672 1.219 5.356 2.4259 8.028 3.6448 1.391.6276 1.524 1.1586.617 2.4258-.194.2776-.423.5189-.641.7845-1.1 1.2792-2.2 2.5585-3.276 3.8619-.194.2293-.254.5552-.436.9535 1.064-.1087 1.947-.2293 2.829-.2897.557-.0362 1.125.0362 1.693.0362 1.524 0 3.047-.012 4.582-.0241.774 0 1.028.4465.931 1.1344-.181 1.2793-.362 2.5707-.592 3.8499-.254 1.4-.556 2.8-.871 4.381.46-.169.774-.2052.956-.3741 1.184-1.05 2.369-2.1121 3.494-3.2103 1.729-1.6896 3.639-1.3638 4.413.7724.641 1.762 1.378 3.4999 2.116 5.2257.338.7966.616 1.6776 1.523 2.3293.641-1.2552 1.294-2.3534 2.346-3.162.423-.3259.665-.9293.943-1.4362.604-1.1345 1.136-2.3172 1.789-3.4275.206-.3621.725-.5431 1.233-.9052.641.8086 1.294 1.4483 1.741 2.2207.883 1.4965 1.645 3.0534 2.455 4.5861.254.4827.544.9413.943 1.6293.411-.6517.677-1.0379.894-1.4483.532-1.0258 1.04-2.0637 1.56-3.1016.822-1.6172 1.572-3.2827 3.059-4.4413 1.402.3741 1.39.3983 2.261 1.3879 1.052 1.1948 2.128 2.3654 3.216 3.524 3.458 3.6931 6.928 7.374 10.386 11.067 1.209 1.2914 2.381 2.631 3.591 3.9344.157.169.398.2655.604.3862-1.62-2.643-3.446-5.0809-5.223-7.5429-1.765-2.45-3.543-4.912-5.187-7.4464-1.668-2.5585-3.941-4.7068-5.404-7.7239 4.243.6275 7.713 2.7637 11.691 4.2843-.629-3.3671-1.632-6.3119-2.865-9.1118 1.366-.7483 2.575-.5552 3.82-.2414 1.778.4465 3.579.8448 5.356 1.2672.641.1569 1.27.2414 2.044 0-.496-.7241-.883-1.3155-1.318-1.8827-.955-1.2672-1.85-2.6068-2.938-3.7413-.834-.8689-1.391-1.7862-1.657-2.812 2.394-2.5586 5.731-3.7896 8.004-6.4205-3.566-1.2672-7.339-1.1586-10.869-2.4379.351-1.0017.556-1.8948.955-2.6913.448-.9052 1.088-1.7017 1.608-2.5707.738-1.1948 1.403-2.4016 2.237-3.8861z" fill="#000"/><path d="m99.9395 181.32c4.6545-.809 9.3215-1.617 14.0615-2.426.786.712 1.16 1.678 1.354 2.728.35 1.895 2.116 3.029 3.953 2.51.097-.024.182-.072.278-.097 1.814-.531 2.358-1.665 1.645-3.463-.375-.93-.822-1.847-1.318-2.969 5.078-1.46 10.047-2.885 15.222-4.369 2.043 8.991 4.074 17.886 6.118 26.877-.351.133-.677.314-1.04.398-6.106 1.461-12.187 2.957-18.317 4.309-2.297.507-4.679.639-7.025.953-.955.133-1.91.302-2.853.447-2.515.398-5.042.796-7.557 1.182-.653-.844-.846-1.75-1.003-2.715-.52-2.981-1.149-5.938-1.717-8.919-.109-.567-.097-1.146-.181-1.714-.339-2.425-.738-4.839-1.04-7.265-.133-1.038-.024-2.1-.109-3.138-.085-.676-.278-1.376-.4715-2.329zm33.6235 17.089c.036-.314.133-.591.085-.857-.218-1.231-.52-2.437-.714-3.668-.604-3.887-2.067-7.616-2.321-11.574-.036-.616-.29-1.207-.435-1.823-.145-.663-.581-.905-1.427-1.001.061.869.048 1.629.194 2.353.435 2.317.906 4.622 1.39 6.927.592 2.824 1.221 5.636 1.789 8.461.182.82.581 1.17 1.439 1.182zm-8.403-18.151c.049.628.036 1.255.157 1.846.956 4.816 1.935 9.619 2.926 14.423.121.567.29 1.122.436 1.677.157.604.556.724 1.293.447-.109-.845-.181-1.738-.35-2.607-.46-2.354-.956-4.707-1.439-7.048-.508-2.45-1.028-4.9-1.536-7.35-.169-.736-.338-1.448-1.487-1.388z" fill="#fff"/><path d="m224.943 77.5413c-.399-.7121-.906-.9776-1.596-1.0259-1.583-.1086-3.155-.2775-4.932-.4465-.013-.9534-.109-1.8948-.025-2.8241.073-.8448-.266-1.3034-1.027-1.4844-.69-.169-1.403-.2655-2.104-.35-.617-.0724-1.257-.1328-1.874-.0966-1.439.0845-2.297-.893-2.878-1.8585-.87-1.4483.653-3.6327 2.152-3.5603 1.778.0845 3.567.0241 5.224.0241.64-.9051.955-1.6775.713-2.6068-.061-.2172-.048-.4948.024-.7121 1.149-3.2585 1.802-6.7101 3.821-9.6308.217-.3138.447-.6275.665-.9413.52-.7604 1.148-1.0983 2.091-.6638.472.2172 1.016.2776 1.608.4345.097.2655.17.5913.315.8931.991 2.1723 2.647 3.3792 5.09 3.3913.58 0 1.148-.0483 1.499-.0604.943 1.0621 1.632 2.1965 2.648 2.8482.991.6397 2.309.7845 3.567 1.1586-.798 1.4483-.738 3.0293-.412 4.6585.194.9776.956 1.2914 1.693 1.6052.266.1206.786-.0483 1.052-.2535.399-.3138.798-.7241 1.016-1.1827.652-1.3638 1.886-1.5689 3.155-1.5931 1.354-.012 2.418.6276 2.974 1.8827.303.688.52 1.4724.52 2.2207 0 2.0758-.507 4.0913-1.221 6.0343-.653 1.7862-2.503 2.6431-4.364 2.1241-.545-.1569-1.077-.3258-1.657-.5069-.024 1.4724.194 1.6052 3.24 2.281-.483 2.462.871 4.0189 2.878 5.3102-.314.3259-.508.5793-.75.7845-1.511 1.3275-2.998 2.6913-4.546 3.9585-1.559 1.2793-3.397 1.9069-5.38 2.2931-2.805.5551-5.586.362-8.355-.0483-.773-.1207-1.571-.4707-2.248-.9052-2.116-1.3517-4.172-2.7878-5.622-4.8998-.569-.8328-1.113-1.6776-1.669-2.5224.689-.8931 1.499-1.4241 2.479-1.7862.931-.35 1.801-.8568 2.236-1.943zm19.357-11.9601c.097.9896.641 1.0379 1.173 1.0379.834-.0121 1.064.4466 1.1 1.1827.061 1.1345-.072 2.1965-.725 3.162-.448.6638-.895 1.3155-1.342 1.9672.822.7724 1.318.9293 1.995.3742.483-.3983.979-1.0017 1.1-1.581.314-1.4362.471-2.9207.592-4.393.109-1.219-.64-2.0276-1.862-2.0517-.64-.0241-1.281.181-2.031.3017zm-7.327 3.4517c-.35.5189-.701.881-.858 1.3034-.919 2.3775-1.838 4.755-2.672 7.1567-.181.5069-.363 1.231.363 1.75.677-.4104.991-1.0379 1.221-1.7259.774-2.2689 1.499-4.5619 2.309-6.8188.206-.5793.145-1.0017-.363-1.6654zm-9.237-5.4792c.061-1.1466-.713-1.9069-1.983-1.9431-.979-.0241-2.055.881-2.103 1.7982-.073 1.1345.677 1.8707 2.007 1.9793 1.197.0966 2.007-.6276 2.079-1.8344z" fill="#ddcdbc"/><path d="m57.1515 164.315c-.3265-1.641.9793-2.945.2659-4.586-1.1123-.205-2.3213-.422-3.6755-.676-.411 1.449-.7979 2.812-1.209 4.261-5.0901-.568-9.9626-1.883-15.0406-3.078.266-1.4.5078-2.691.7496-3.971-1.1727-.929-2.5269-.905-3.7843-1.134-.6166-.109-.7617.338-.8221.905-.1088 1.135-.3144 2.257-.4837 3.488-2.5631-.012-4.7273-1.074-7.1938-1.364.2781-3.126.3748-6.131 1.0035-9.087 1.0277.132 1.9708.193 2.8776.374.7979.157 1.5596.446 2.3334.688.3265.096.6408.289.9552.301 3.3248.193 6.5046 1.171 9.7691 1.678 1.2816.193 2.5873.169 3.8689.338.798.108 1.5597.398 2.3456.603.7496.193 1.4871.386 2.2367.555 2.7204.616 5.4407 1.231 8.1611 1.823 2.0191.434 4.0503.857 6.0815 1.231 1.064.193 2.1642.277 3.3491.422-.5804 3.174-1.1003 6.143-2.1763 9.136-3.2886-.35-6.4563-1.074-9.6119-1.907z" fill="#fff"/><path d="m56.1117 152.681c-4.9813-.917-9.9021-1.291-14.6537-2.86.4111-2.571.6408-5.105 1.2574-7.555.4474-1.799 1.3783-3.464 2.1038-5.238 1.5959.181 3.0951.338 4.5339.965 1.4025.604 2.8775 1.014 4.4614 1.074 1.7652.061 3.5183.399 5.3802 1.038-1.0156 4.2-2.0432 8.352-3.083 12.576z" fill="#fff"/><path d="m25.2929 164.677c-.3506-2.486-.1935-3.645.6529-4.864 2.2125.411 4.4614.821 6.7706 1.256v3.017c1.2695.736 2.5632 1.038 3.9174.736.7617-.917-.0968-2.221.8826-2.993 4.8603.99 9.7086 1.967 14.6778 2.981-.0967.953-.1934 2.003-.3143 3.138 1.0277 1.074 2.5027.712 3.8447.82.1572.013.3869-.253.5078-.446.399-.591.7496-1.207 1.1365-1.835 2.9501-.06 5.9002.061 8.9833 1.352.2418 1.364-.9552 2.836-.5683 4.635-13.6018-2.619-27.0101-5.202-40.491-7.797z" fill="#fff"/><path d="m254.711 265.294c-1.064.893-.532 2.064-.835 3.102-1.692 0-3.397 0-5.187 0-.036-.544-.096-.966-.096-1.376 0-1.786-.012-3.561.024-5.335.012-.712.157-1.412.254-2.208 3.458-.169 6.807-.495 9.974 1.158.798.423 1.705.652 2.564.93 1.088.35 2.164.784 3.288.977 1.886.326 3.809.507 5.719.688 1.088.109 2.213-.036 3.289.133 1.692.265 3.01 2.269 2.369 4.224-.217.652-.701.845-1.354.833-1.257-.037-2.503-.049-3.76-.049-1.064-.012-2.128-.06-3.18.025-2.116.144-4.11-.519-6.117-.978-2.358-.579-4.655-1.424-6.952-2.124z" fill="#fff"/><path d="m166.849 115.751c.387.169.761.338 1.136.519 2.817 1.363 5.634 2.751 8.464 4.103.568.266 1.16.471 1.753.676.677.229 1.305.157 2.007-.531-1.512-.676-2.938-1.304-4.353-1.955-1.39-.652-2.769-1.352-4.171-1.98-1.439-.639-3.083-.796-4.437-1.979.29-.434.556-.808.882-1.315 2.563 1.17 5.054 2.317 7.545 3.439 1.584.712 3.18 1.4 4.763 2.112.617.278 1.101-.036 1.923-.398-4.123-2.16-8.318-3.488-12.296-5.479.266-.543.689-.435 1.1-.386 1.947.253 3.736.965 5.477 1.798 2.962 1.4 5.924 2.836 8.899 4.2.495.229 1.112.205 1.753.302.254-2.052-.012-4.019-.206-5.974-.072-.785.145-1.4.544-2.04.327-.519.822-.821 1.318-.604.339.157.641.713.701 1.123.145 1.146.194 2.305.218 3.452.036 1.774 0 3.56.012 5.334 0 .821.024 1.629.036 2.45.025.772-.362 1.243-1.052 1.569-1.221.567-2.442 1.146-3.627 1.798-.773.434-1.547.193-2.248.024-3.7-.905-7.412-1.798-11.051-2.908-1.487-.459-2.817-1.449-4.171-2.269-.279-.169-.351-.688-.508-1.038.072-.073.157-.157.23-.23.58.278 1.148.58 1.753.833 1.596.664 3.204 1.316 4.812 1.955 1.027.411 2.079.773 3.107 1.195.762.302 1.402.242 2.055-.531-.375-.229-.701-.507-1.064-.652-1.124-.446-2.261-.832-3.385-1.255-1.306-.495-2.624-.965-3.905-1.52-1.185-.507-2.334-1.075-3.482-1.654-1.028-.519-1.076-.772-.532-2.184z" fill="#ddcdbc"/><path d="m73.3769 142.953c-.5078 1.099-.9068 2.076-1.4025 2.993-1.0398 1.895-1.5113 3.923-1.741 6.059-.133 1.183-.4837 2.341-.7376 3.464-1.5234.096-9.1646-1.618-11.1716-2.474.1209-3.295 1.0882-6.433 1.9708-9.571.1934-.688.411-1.376.6649-2.052.2298-.603.6771-.929 1.3542-.796 1.6927.338 3.3853.676 5.078 1.014.5199.108 1.0398.217 1.5597.338 1.4387.338 2.8775.675 4.4251 1.025z" fill="#fff"/><path d="m220.252 268.046c-1.572 0-2.999 0-4.534 0 0-.785.012-1.437 0-2.088-.012-.737-.266-1.316-1.076-1.545-1.898 1.255-3.93 2.317-6.166 2.908-1.197.314-2.455.423-3.676.7-3.034.688-6.033.242-9.043-.132-.677-.085-1.004-.399-1.173-1.05-.484-1.907.06-2.74 1.946-3.319.593-.181 1.234-.205 1.85-.266 1.91-.169 3.833-.265 5.731-.507.689-.084 1.33-.519 1.995-.772 1.656-.64 3.349-1.183 4.957-1.931 1.052-.495 2.092-.181 3.132-.314 1.281-.157 2.587-.133 3.881-.169.532-.012 1.064-.024 1.596.012 1.221.085 1.39.278 1.281 1.521-.169 2.003-.363 4.019-.556 6.022-.012.29-.085.567-.145.93z" fill="#fff"/><path d="m27.3965 147.226c.5199-1.412.9914-2.655 1.4388-3.91.6166-1.714 1.1002-3.476 1.8498-5.13 1.4509-3.198 1.0881-2.908 4.7637-2.824 1.3178.036 2.551.338 3.7964.724.7254.218 1.5113.194 2.273.302.4111.06.81.145 1.2937.229-.4716 1.268-.9794 2.366-1.2695 3.512-.3869 1.533-.5925 3.126-.9189 4.671-.1814.893-.4836 1.762-.6892 2.643-.133.604-.1813 1.219-.2901 1.967-4.1834.254-7.9798-1.689-12.2477-2.184z" fill="#fff"/><path d="m85.4189 166.294c-5.5859-.482-11.0629-.724-16.5761-2.22 1.7531-3.09 2.0916-6.481 2.8171-9.872 1.3057.217 2.6236.47 3.9415.663 1.4266.205 2.8654.338 4.2921.519 1.3904.169 2.8534.145 4.1349.604 1.064.386 1.6927 1.544 1.9345 2.715.5199 2.486.1572 4.936-.544 7.591zm-6.8554-1.955c.7738.036 1.6202-.736 1.6081-1.484 0-.809-.9794-1.629-1.9224-1.629-.5562 0-1.4146.965-1.4267 1.593-.0242.881.6529 1.472 1.741 1.52z" fill="#fff"/><path d="m109.406 263.544c-.798.555-.628 1.412-.713 2.136-.085.76-.024 1.521-.024 2.233-1.197.446-3.361.398-5.042-.097-.145-2.184-.302-4.417-.447-6.565.181-.169.241-.278.314-.29 2.225-.362 4.449-.76 6.686-1.062.738-.096 1.548-.157 1.898.869.085.254.629.422.992.507 3.143.724 6.287 1.448 9.442 2.124.593.133 1.306.193 1.862-.012 1.258-.471 2.406.012 3.519.326.943.265 1.475 1.207 1.644 2.208.133.773.048 1.533-.435 2.137-3.398.663-6.65-.097-9.89-.712-1.185-.23-2.382-.423-3.519-.821-1.197-.41-2.466-.604-3.47-1.605-.689-.676-1.801-.893-2.817-1.376z" fill="#fff"/><path d="m100.895 76.4671c-2.5876.2293-4.4858-1.1827-6.0939-2.8482-.81-.8327-1.209-2.1603-1.5596-3.343-.5078-1.6896-.4232-3.4155.3869-5.0206.6649-1.3276 1.2211-2.7517 2.1279-3.9103 1.0035-1.2913 2.3697-2.2327 4.1954-2.1361.9553.0483 1.9343 0 2.8893-.0604 3.41-.181 6.94 2.631 7.363 5.8775.146 1.0862.508 2.1362.714 3.2223.084.4587.121.9897-.037 1.4-.64 1.6655-1.281 3.4155-2.623 4.5982-1.004.8931-2.334 1.5448-3.639 1.943-1.161.35-2.479.1931-3.724.2776zm1.197-2.4741c.798-.2051 1.825-.4344 2.829-.7241 2.212-.6396 4.232-3.343 3.18-6.0585-.448-1.1465-1.004-2.3534-1.826-3.2464-1.282-1.3879-2.89-2.4983-4.969-2.1724-2.7447.4224-5.4893 3.5361-5.5014 6.2998-.012 1.6897.8585 3.1258 1.8862 4.4413.7012.9052 1.6926 1.0379 2.6962 1.1948.484.0845.955.1569 1.705.2655z" fill="#fff"/><path d="m39.1852 263.399c-1.1607-.567-2.1521-1.05-3.3248-1.629 1.2453-2.486 2.9138-4.635 4.014-7.169.4352.181.7496.278 1.0398.422.9551.447 1.874 1.002 2.8654 1.352.9914.338 1.8257.76 2.4423 1.641.2902.423.7133.785 1.1486 1.075 3.0831 2.099 6.287 3.886 10.0835 4.368 1.9949.254 2.9742 2.595 1.8982 4.309-.2902.471-.6771.664-1.2091.579-.9551-.145-1.9224-.241-2.8533-.47-2.2851-.543-4.6549-.652-6.8312-1.726-1.5959-.785-2.8533-1.943-4.1833-3.03-.81-.663-1.475-1.508-2.2246-2.244-.5925-.58-1.0761-.568-1.5476.145-.4836.712-.8463 1.496-1.3179 2.377z" fill="#fff"/><path d="m264.915 170.567c-.206 1.062.217 1.822.556 2.594 1.245 2.825 2.502 5.637 3.748 8.461.072.169.121.35.242.7-.496.084-.931.169-1.246.217-.991-1.895-1.934-3.633-2.817-5.395-.858-1.75-1.656-3.536-2.587-5.551-.242.434-.484.687-.484.929-.012.314.157.652.278.965.931 2.535 1.862 5.057 2.793 7.579.049.121-.012.266-.024.507-1.137-.084-1.862-.808-2.515-1.532-.713-.785-1.161-1.738-1.354-2.824-.314-1.702-.834-3.368-1.161-5.069-.302-1.557-.544-3.138-.689-4.707-.109-1.135.012-1.171 1.1-1.472 1.705-.471 3.41-.978 5.26-1.521 1.366 1.955 2.672 3.97 4.135 5.877 1.136 1.473 2.079 3.005 2.684 4.755.217.652.544 1.34.084 2.221-.302-.386-.568-.652-.725-.953-.556-1.062-1.016-2.185-1.644-3.211-.762-1.267-1.645-2.462-2.503-3.656-.145-.194-.472-.254-.991-.519.169.7.217 1.17.386 1.581.653 1.508 1.318 3.005 2.032 4.477.773 1.605 1.584 3.186 2.43 4.767.326.604.23.978-.387 1.267-1.245-.772-1.983-1.955-2.6-3.198-.822-1.665-1.547-3.391-2.345-5.069-.29-.603-.653-1.182-1.016-1.75-.121-.169-.35-.253-.64-.47z" fill="#ddcdbc"/><path d="m85.2381 168.105c-.4353 2.341-.8222 4.417-1.2333 6.674-5.5132-.073-10.8088-1.231-16.2616-2.004.3385-2.257.4594-4.405 1.342-6.481 2.5632.338 5.078.712 7.5928.99 1.0882.121 2.2005-.048 3.2886.06 1.6685.169 3.3128.471 5.2715.761z" fill="#fff"/><path d="m75.6381 143.822c2.9017.652 5.6462 1.268 8.5117 1.919-.3023 2.692-.6045 5.298-.9068 8.002-3.8569.145-7.5203-.712-11.3651-1.304.4474-3.198 2.0433-5.974 3.7602-8.617z" fill="#fff"/><path d="m247.758 108.159c-2.297-1.351-4.509-2.341-6.396-3.91-.798-.664-1.801-1.098-2.732-1.593-.81-.434-.883-.664-.617-1.605.52-1.8103 1.415-3.4033 2.443-4.9602.786-1.1948 1.136-2.5947 1.402-4.0068.061-.3258.109-.6638.169-1.062 1.089.1327 1.826.8689 2.66 1.3879.194.1207.278.4827.339.7603.725 3.4396 1.463 6.8668 2.116 10.3068.29 1.46.399 2.981.616 4.682z" fill="#fff"/><path d="m17.1562 154.322c.3023-1.943.4837-3.753.8827-5.527.2901-1.304.8221-2.559 1.3541-3.79.399-.941 1.0519-1.436 2.2367-1.448 1.3783-.024 2.7446-.459 4.1229-.712.4232-.073.8463-.145 1.4992-.266-.1209.905-.1572 1.702-.3506 2.474-.8464 3.452-1.729 6.904-2.6478 10.524-2.3214-.157-4.6549-.615-7.0972-1.255z" fill="#fff"/><path d="m128.207 109.68c-.241-.941-.447-1.714-.677-2.583.738-.301 1.379-.639 2.056-.844 2.805-.869 5.622-1.702 8.439-2.547.181-.06.423-.181.544-.109 1.088.64 2.079-.024 3.035-.301 3.01-.869 5.972-1.871 8.959-2.776 1.837-.5552 3.699-1.0259 5.718-1.581.303 1.062.569 2.003.883 3.077-9.66 2.547-19.212 5.069-28.957 7.664z" fill="#fff"/><path d="m234.688 168.431c7.641.169 15.234.326 22.924.494.254 1.087.471 2.052.725 3.15-8.076.797-15.935.012-23.806-.108-.363-1.292-.06-2.39.157-3.536z" fill="#fff"/><path d="m41.9658 134.313c.3023-.375.4957-.713.7617-.954 1.9224-1.677 3.8206-3.379 5.8035-4.972 1.7289-1.376 3.5787-2.595 5.3319-3.947 1.0639-.82 2.0191-1.786 3.083-2.607 2.2851-1.749 4.6186-3.439 6.9279-5.189 1.4267-1.074 2.805-2.209 4.2196-3.283 2.5148-1.931 5.0538-3.838 7.5807-5.756.6771-.507 1.3541-1.014 2.2972-1.714-.6287 1.617-1.1607 2.788-2.4181 3.741-4.2317 3.198-8.3062 6.602-12.4653 9.884-3.8931 3.078-7.8346 6.095-11.752 9.148-2.2004 1.726-4.4493 3.392-6.5409 5.238-.9189.821-1.7169.773-2.8292.411z" fill="#fff"/><path d="m222.525 107.918c.218-1.351.436-2.691.641-4.043.182-1.182.327-2.377.52-3.548.194-1.1826.423-2.3653.641-3.548.048-.2776.121-.5673.109-.8569-.109-2.6189 1.789-3.7534 3.651-4.8999.073-.0483.194 0 .29 0 .061.0483.182.0965.194.1689.677 3.1017 1.318 6.2154 2.043 9.3169.218.942-.06 1.473-.822 2.052-1.971 1.472-3.845 3.065-5.755 4.598-.399.314-.81.616-1.221.917-.097-.048-.194-.108-.291-.157z" fill="#fff"/><path d="m23.9518 157.726c-.2418 2.16-.4836 4.272-.7375 6.541-2.1158-.398-4.3284-.773-6.5168-1.243-.9068-.193-1.2574-.761-1.064-1.75.3507-1.823.8101-3.633 1.2937-5.745 2.1038 1.992 4.6911 1.424 7.0246 2.197z" fill="#fff"/><path d="m232.827 168.66c-.048 1.026-.097 2.064-.145 3.077-4.643.797-9.08-.555-13.747-.482-.121-1.087-.218-2.052-.327-3.017.943-.242 13.324.144 14.219.422z" fill="#fff"/><path d="m231.424 96.1996c2.237-.8811 4.558.181 6.722-.6517.073 1.5809-2.865 10.2701-3.929 11.7311-.81-.966-2.636-8.0985-2.793-11.0794z" fill="#fff"/><path d="m80.8003 142.712c-.6166-.241-1.1244-.446-1.8257-.724 4.4372-6.529 8.6084-12.998 13.3237-19.189.7254.893.8947 1.593.2297 2.534-2.6841 3.814-5.3077 7.664-7.9192 11.514-.7013 1.038-1.3179 2.124-1.995 3.174-.5682.893-1.1727 1.75-1.8135 2.691z" fill="#fff"/><path d="m230.711 94.3287c-.036-.8206-.085-1.7016-.133-2.5827 1.209 0 2.297.0725 3.373-.0241.992-.0845 1.959-.3258 2.938-.4948 1.064-.1931 2.14-.3862 3.374-.6034-.303.9775-.448 1.7258-.774 2.4016-.181.3742-.641.8207-1.016.869-2.382.2655-4.776.4344-7.169.6155-.121.0241-.254-.0724-.593-.1811z" fill="#e9e4dd"/><path d="m191.671 127.192c-1.995.905-3.833 1.738-5.816 2.631-.411-.616-.822-1.231-1.33-1.979.774-.362 1.415-.676 2.056-.966.737-.35 1.487-.676 2.224-1.026 1.161-.555 1.415-.507 2.213.435.205.205.351.458.653.905z" fill="#fff"/><path d="m105.248 104.104c.749.592.858 1.183.423 1.859-.484.772-.967 1.545-1.463 2.305-.701 1.086-1.427 2.148-2.176 3.283-.689-.41-.871-1.002-.532-1.593 1.052-1.835 2.164-3.621 3.264-5.419.097-.157.278-.253.484-.435z" fill="#fff"/><path d="m54.5641 160.851c.6408.109 1.1002.193 1.7289.302-.4594 2.064-.9068 4.043-1.3904 6.155-.5441-.084-.9914-.157-1.596-.241.1089-2.161.8464-4.08 1.2575-6.216z" fill="#fff"/><path d="m259.872 160.851c1.887.555 3.555 1.05 5.332 1.569-.653 1.267-1.741.748-2.527 1.026-.846.302-1.741.459-2.817.724.012-1.134.012-2.112.012-3.319z" fill="#fff"/><path d="m35.6549 163.145c-.4473.072-.7979.12-1.3057.205 0-.688-.1814-1.364.0362-1.871.399-.941.3869-1.859.3748-2.824-.0241-1.581.3869-1.847 2.1884-1.364-.4473 1.931-.8705 3.874-1.2937 5.854z" fill="#fff"/><path d="m107.134 103.827c-.29-.7-.484-1.171-.665-1.617 1.015-1.642 1.995-3.2226 2.986-4.8157 1.028 1.1344 1.1 1.5568.375 2.6307-.822 1.207-1.693 2.39-2.696 3.802z" fill="#fff"/><path d="m194.185 15.4842c-.834 1.4724-1.499 2.6913-2.212 3.8861-.52.869-1.161 1.6776-1.608 2.5706-.399.7966-.617 1.6897-.956 2.6914 3.531 1.2913 7.315 1.1706 10.87 2.4378-2.273 2.631-5.598 3.8499-8.004 6.4206.254 1.0258.822 1.943 1.656 2.812 1.088 1.1465 1.983 2.4741 2.938 3.7413.423.5672.81 1.1706 1.318 1.8827-.774.2414-1.402.1569-2.043 0-1.79-.4345-3.579-.8207-5.356-1.2672-1.246-.3138-2.455-.5069-3.821.2413 1.233 2.812 2.237 5.7568 2.866 9.1119-3.99-1.5207-7.448-3.6568-11.692-4.2844 1.463 3.0172 3.736 5.1654 5.405 7.724 1.656 2.5344 3.421 4.9843 5.186 7.4463 1.778 2.4621 3.603 4.8879 5.223 7.543-.205-.1328-.447-.2173-.604-.3862-1.209-1.3034-2.37-2.6431-3.591-3.9344-3.458-3.693-6.928-7.374-10.386-11.067-1.088-1.1586-2.164-2.3292-3.216-3.524-.87-.9897-.846-1.0138-2.261-1.3879-1.487 1.1585-2.236 2.812-3.059 4.4412-.519 1.0379-1.027 2.0758-1.559 3.1017-.218.4103-.496.7965-.895 1.4482-.399-.6879-.677-1.1465-.943-1.6292-.822-1.5328-1.584-3.0896-2.454-4.5862-.448-.7603-1.101-1.412-1.741-2.2206-.508.3621-1.016.5431-1.234.9052-.652 1.1103-1.184 2.2809-1.789 3.4275-.266.5069-.508 1.0982-.943 1.4361-1.052.8086-1.705 1.8948-2.346 3.162-.894-.6637-1.172-1.5327-1.523-2.3292-.75-1.7258-1.475-3.4517-2.116-5.2258-.774-2.1361-2.684-2.4499-4.413-.7724-1.136 1.1104-2.321 2.1603-3.494 3.2103-.193.169-.508.2052-.955.3741.314-1.581.616-2.9689.87-4.3809.23-1.2793.411-2.5585.593-3.8499.097-.6879-.169-1.1345-.931-1.1345-1.524 0-3.047.0242-4.582.0242-.569 0-1.137-.0724-1.693-.0362-.883.0603-1.777.181-2.829.2896.181-.3982.242-.7241.435-.9534 1.076-1.3034 2.188-2.5706 3.276-3.862.218-.2534.448-.5069.641-.7844.895-1.2673.762-1.7983-.616-2.4258-2.672-1.219-5.356-2.4259-8.028-3.6448-.206-.0965-.387-.2534-.738-.4827.375-.2293.629-.3983.907-.5431 1.874-.9897 3.784-1.9189 5.622-2.9931.81-.4706 1.451-1.2189 2.14-1.8223-.157-1.6293-1.427-2.4258-2.285-3.4879-.992-1.231-1.935-2.4861-2.89-3.7413-.072-.0965-.097-.2534-.169-.4827 1.608-.3259 3.18 0 4.739-.0242 1.56-.0241 3.12-.2293 4.812-.362.23-3.4396-.834-6.6016-1.366-9.94461.762-.0362 1.27.3862 1.802.74826 1.463 1.01375 2.913 2.05165 4.401 3.02925.785.5189 1.039.4948 2.768.3258.23-.6034.557-1.243.738-1.9309.459-1.76207 1.257-3.43962 1.173-5.3344-.025-.48275.326-.97757.532-1.56893 1.16.71205 1.68 1.83444 2.454 2.71545.641.72412 1.197 1.50859 1.789 2.28098.895 1.1586 1.899 2.1724 3.7 2.3413 1.826-2.75163 3.76-5.64812 5.852-8.79804 1.124 3.35509 2.152 6.44467 4.171 9.24464 1.741-.8328 3.603-1.60517 5.332-2.5948 1.681-.95342 3.252-2.12409 5.005-3.28268.315 1.53272-.084 2.82407-.205 4.13956-.133 1.48442-.339 2.95682-.411 4.45332-.073 1.4483.641 2.0758 2.079 2.0276 2.165-.0725 4.317-.0966 6.481-.1931.907-.0362 1.813-.1811 2.72-.2776.351-.0362.738-.0483 1.463-.0845zm-44.795 14.591c.169.0845.338.2293.508.2293 9.285.338 18.571.519 27.868.1931 1.161-.0362 2.31-.0482 3.47-.0844.024 0 .061-.0604.073-.0966.024-.0362.024-.0845.036-.1569-.532-.8207-1.366-.9775-2.261-.9896-2.406-.0242-4.812-.0362-7.218-.0242-2.176 0-4.34.0725-6.517.0483-.955-.012-1.91-.2172-2.877-.2293-3.857-.0483-7.714-.0603-11.571-.0965-1.124-.0121-1.124-.0362-1.511 1.2068zm-.097 4.8275c1.814.0724 3.627.1448 5.441.2052 3.458.1327 6.928.2413 10.386.3982 1.003.0483 1.97.1811 2.998-.0241 1.016-.2052 2.116-.1931 3.156-.0724 2.502.2896 4.993-.2172 7.496-.0724.52.0241 1.052-.1328 1.584-.1448.604-.0242.955-.3018 1.197-.9535-.339-.0844-.605-.2172-.859-.2172-1.874-.0121-3.76 0-5.634-.0121-4.437-.012-8.874.0242-13.324-.0362-3.421-.0483-6.831-.2051-10.252-.3379-.931-.0483-1.657.3138-2.189 1.2672zm31.75-9.2325c-.157-.8086-.641-1.0017-1.451-.9655-1.681.0724-3.361 0-5.042.0241-3.167.0483-6.335.1931-9.503.1931-3.18 0-6.359-.1086-9.539-.1931-1.354-.0362-2.696-.1448-4.051-.181-.955-.0242-1.777.2655-2.514 1.1948.773.1448 1.33.3258 1.898.3379 4.703.0966 9.418.1931 14.121.2293 2.6.0121 5.199-.1207 7.799-.1327 2.261-.0121 4.534.0603 6.795.0724.568-.0121 1.221.1689 1.487-.5793z" fill="#fff"/><g fill="#000"><path d="m255.412 178.158c.048.664.097 1.171.121 1.678.169 3.222.544 6.444.423 9.642-.169 4.418.363 8.871-.471 13.252-.436 2.257-.206 4.489-.279 6.734-.048 1.485.013 2.981.013 4.466 0 1.629.12 3.282-.049 4.887-.435 3.971-.024 7.954-.35 11.924-.17 2.052.072 4.128.096 6.204.012.965-.072 1.025-1.269 1.351-.097-.808-.266-1.593-.266-2.377 0-2.788.06-5.576.072-8.364.025-6.795-.012-13.589.049-20.372.048-4.912.024-9.848.362-14.748.254-3.717-.266-7.386-.084-11.079.024-.483-.036-.965.012-1.448.097-.809.423-1.472 1.62-1.75z"/><path d="m250.551 223.476c-.726-.821-.714-1.738-.714-2.631-.012-4.755-.048-9.522-.012-14.278.061-6.927.17-13.854.266-20.782 0-.326.085-.652.182-1.255.411.326.81.471.882.724.266.869.593 1.762.581 2.643-.012 2.438-.17 4.876-.266 7.314-.012.241-.085.495-.037.724.52 2.281.375 4.562.23 6.867-.121 1.967.061 3.946-.012 5.914-.048 1.327.157 2.631-.218 3.982-.29 1.038.085 2.257.085 3.392 0 1.822-.048 3.644-.133 5.467-.036.664-.012 1.388-.834 1.919z"/><path d="m231.315 187.439c1.04.519 1.136 1.291.931 2.124-.568 2.365-.81 4.791-1.657 7.108-.29.797-.266 1.702-.411 2.559-.459 2.546-.894 5.105-1.414 7.651-.242 1.171-.617 2.318-.967 3.464-.52 1.702-.883 3.403-1.04 5.19-.218 2.329-.762 4.634-1.185 6.951-.036.205-.23.386-.399.64-1.064-.664-1.052-1.605-.883-2.559.351-1.895.75-3.777 1.137-5.66 1.16-5.612 2.321-11.212 3.482-16.824.568-2.739 1.112-5.479 1.705-8.206.169-.809.447-1.569.701-2.438z"/><path d="m133.564 198.409c-.859-.012-1.258-.362-1.427-1.17-.568-2.825-1.197-5.637-1.789-8.461-.484-2.305-.956-4.61-1.391-6.927-.133-.736-.121-1.497-.193-2.353.846.084 1.269.337 1.426 1.001.133.604.387 1.207.436 1.823.254 3.958 1.716 7.675 2.321 11.574.193 1.231.496 2.449.713 3.668.037.254-.06.531-.096.845z"/><path d="m125.16 180.258c1.161-.06 1.33.652 1.475 1.376.52 2.45 1.028 4.9 1.536 7.35.483 2.353.979 4.694 1.438 7.048.17.881.242 1.774.351 2.607-.737.277-1.136.156-1.294-.447-.145-.555-.326-1.11-.435-1.678-.979-4.803-1.959-9.618-2.926-14.422-.109-.579-.096-1.194-.145-1.834z"/><path d="m244.301 65.5814c.737-.1207 1.39-.3259 2.031-.3138 1.221.0241 1.958.8327 1.862 2.0517-.121 1.4724-.278 2.9568-.593 4.393-.133.5913-.616 1.1827-1.1 1.581-.677.5551-1.173.3982-1.995-.3742.448-.6517.895-1.3154 1.342-1.9672.653-.9534.798-2.0275.726-3.162-.037-.7361-.278-1.1827-1.1-1.1827-.52.0121-1.076-.0362-1.173-1.0258z"/><path d="m236.974 69.033c.508.6517.568 1.0861.363 1.6654-.811 2.2569-1.548 4.5499-2.31 6.8188-.229.6759-.556 1.3035-1.221 1.7259-.725-.5311-.532-1.2431-.363-1.75.835-2.4017 1.754-4.7792 2.672-7.1567.158-.4224.508-.7724.859-1.3034z"/><path d="m227.736 63.5538c-.06 1.2068-.883 1.931-2.08 1.8344-1.33-.1086-2.079-.8448-2.007-1.9793.061-.9172 1.125-1.8223 2.104-1.7982 1.27.0362 2.043.7845 1.983 1.9431z"/><path d="m117.749 66.0279c-1.148.0241-2.164-.8328-2.2-1.8345-.036-1.0137.919-2.0154 1.971-2.0758 1.124-.0603 2.212.9293 2.212 2.0155 0 .9896-.931 1.8827-1.983 1.8948z"/><path d="m78.5645 164.339c-1.0882-.048-1.7532-.639-1.7411-1.52.0121-.628.8826-1.594 1.4267-1.594.9431 0 1.9224.833 1.9224 1.63 0 .748-.8343 1.52-1.608 1.484z"/><path d="m102.092 73.993c-.75-.1086-1.221-.1811-1.705-.2655-1.0035-.1569-1.9949-.2897-2.6962-1.1948-1.0277-1.3276-1.8861-2.7517-1.8861-4.4413.0121-2.7638 2.7566-5.8775 5.5013-6.2999 2.067-.3258 3.675.7845 4.969 2.1724.822.8931 1.378 2.0879 1.826 3.2465 1.052 2.7154-.968 5.4188-3.18 6.0585-1.004.2896-2.031.5189-2.829.7241z"/><path d="m149.39 30.0753c.387-1.2431.387-1.2189 1.523-1.2069 3.857.0363 7.714.0483 11.571.0966.955.0121 1.922.2172 2.877.2293 2.176.0241 4.341-.0362 6.517-.0483 2.406 0 4.812.0121 7.218.0242.895.012 1.729.1569 2.261.9896-.012.0603-.024.1086-.036.1569-.012.0362-.049.0965-.073.0965-1.161.0362-2.309.0362-3.47.0845-9.297.3259-18.583.1569-27.868-.1931-.194 0-.363-.1448-.52-.2293z"/><path d="m149.293 34.9025c.532-.9534 1.257-1.3034 2.188-1.2672 3.41.1328 6.831.2897 10.253.338 4.437.0603 8.874.0362 13.324.0362 1.874 0 3.76-.0121 5.634.012.266 0 .52.1328.858.2173-.242.6517-.592.9413-1.197.9534-.532.0121-1.052.1689-1.584.1448-2.502-.1448-4.981.3741-7.496.0724-1.039-.1207-2.14-.1327-3.155.0724-1.028.2052-1.995.0724-2.999.0242-3.457-.1569-6.927-.2655-10.385-.3983-1.814-.0724-3.627-.1448-5.441-.2052z"/><path d="m181.043 25.6702c-.266.7483-.919.5672-1.463.5672-2.261-.012-4.534-.0844-6.795-.0724-2.599.0121-5.199.1569-7.798.1328-4.704-.0362-9.419-.1328-14.122-.2293-.568-.0121-1.124-.1931-1.898-.3379.725-.9173 1.559-1.219 2.515-1.1948 1.354.0362 2.696.1448 4.05.181 3.18.0845 6.36.1931 9.539.1931 3.168 0 6.336-.1328 9.503-.1931 1.681-.0242 3.362.0483 5.042-.0242.774-.0241 1.258.1569 1.427.9776z"/></g></g></svg>